<?xml version="1.0" encoding="UTF-8" standalone="no"?>
<svg width="696px" height="439px" viewBox="0 0 696 439" version="1.1" xmlns="http://www.w3.org/2000/svg" xmlns:xlink="http://www.w3.org/1999/xlink" xmlns:sketch="http://www.bohemiancoding.com/sketch/ns">

            <g id="hi" transform="translate(175.754310, 379.418103)" fill="#000000" sketch:type="MSShapeGroup">
                <path d="M0.0660096983,7.02223707 L1.52931897,4.33949461 L3.2365194,4.09561099 L3.48040302,4.70532004 L1.8951444,7.02223707 L0.0660096983,7.02223707 L0.0660096983,7.02223707 Z M7.74840409,4.2175528 L12.3822306,6.16862931 L13.9674817,5.92474569 L15.1869073,2.99811961 L14.6991401,0.437326509 L11.5286228,0.0715010776 L8.48005496,1.41286853 L7.74840409,4.2175528 L7.74840409,4.2175528 Z M30.9175216,11.7780054 L33.7221983,15.9240496 L35.5513405,15.6801659 L36.4049407,15.3143405 L37.5024246,16.2898825 L40.3071088,16.1679407 L41.0387672,15.0704569 L38.843792,13.7290894 L37.3804828,10.9243976 L35.7952241,8.24166272 L31.4052888,10.4366304 L30.9175216,11.7780054 L30.9175216,11.7780054 Z M46.160361,18.4848578 L47.135903,17.0215409 L50.6722381,17.7531918 L51.1600129,17.3873664 L55.7938319,17.8751336 L55.5499483,18.8506832 L53.5988642,19.9481595 L50.3064127,19.7042759 L46.160361,18.4848578 L46.160361,18.4848578 Z M50.1844709,22.3870183 L51.6477877,25.3136444 L53.9646897,24.4600442 L54.2085808,23.240611 L52.9891552,21.6553599 L50.1844709,21.4114763 L50.1844709,22.3870183 L50.1844709,22.3870183 Z M55.4280065,21.5334181 L57.1352069,19.3384504 L60.671542,21.1675927 L63.9639935,22.0211929 L67.2564526,24.0942187 L67.2564526,25.557528 L64.5737177,26.898903 L60.9154256,27.6305539 L59.0862909,26.53307 L55.4280065,21.5334181 L55.4280065,21.5334181 Z M67.988111,33.2399149 L69.2075366,32.2643804 L71.7683373,33.4838136 L77.4996401,36.1665485 L80.0604407,37.7517996 L81.2798588,39.5809418 L82.7431756,42.8733933 L85.7917435,44.8244774 L85.5478599,45.8000269 L82.6212338,48.2388782 L79.4507241,49.3363621 L78.3532403,48.8485948 L76.0363233,50.1899547 L74.2071886,52.6288136 L72.4999881,54.8237813 L71.1586131,54.7018394 L68.4758782,52.7507554 L68.2319946,49.3363621 L68.7197619,47.5072198 L67.5003362,43.2392263 L65.9150776,41.8978513 L65.7931358,39.9467672 L67.5003362,39.2151164 L69.0855948,36.8982069 L69.4514203,36.1665485 L68.2319946,34.8251735 L67.988111,33.2399149 L67.988111,33.2399149 Z" id="HI"></path>
            </g>
            <g id="ak" transform="translate(3.771552, 321.336207)" fill="#000000" sketch:type="MSShapeGroup">
                <path d="M115.467346,15.5953815 L115.223462,79.9811476 L116.44288,80.7127985 L118.759797,80.8347403 L119.857274,79.9811476 L121.808358,79.9811476 L121.930307,82.1761153 L127.173843,87.2977091 L127.539676,89.2487931 L130.100469,87.7854763 L130.588244,87.6635345 L130.832127,85.346625 L131.929603,84.1271994 L132.783211,84.0052575 L134.24652,82.9077662 L136.56343,84.4930248 L137.051205,86.688 L138.514514,87.5415927 L139.368114,89.3707349 L142.294748,90.7121024 L144.855541,95.2239871 L146.928559,98.1506056 L148.63576,100.223639 L149.733251,103.028316 L153.51347,104.369691 L157.415645,105.954942 L158.147296,109.247401 L158.513122,111.56431 L157.781471,114.125111 L156.440096,115.832304 L155.22067,115.222595 L154.123186,112.905678 L152.050161,111.808202 L150.708793,110.954594 L150.099077,111.56431 L151.19656,113.637344 L151.318502,116.44202 L150.464902,116.807846 L149.001593,115.344537 L147.416342,114.368995 L147.782167,115.58842 L148.757702,116.929795 L148.147992,117.539504 C148.147992,117.539504 147.538283,117.295621 147.172458,116.807846 C146.806617,116.320079 145.587199,114.247053 145.587199,114.247053 L144.855541,112.539852 C144.855541,112.539852 144.611657,113.515394 144.123883,113.271503 C143.636108,113.02762 143.148341,112.174027 143.148341,112.174027 L144.489708,110.71071 L143.392224,109.613226 L143.392224,105.833 L142.782515,105.833 L142.172806,108.393793 L141.319198,108.759634 L140.587547,105.954942 L140.099773,103.150258 L139.490056,102.784432 L139.733947,107.052433 L139.733947,107.906026 L138.636456,106.930491 L135.953721,102.418607 L134.368462,102.052781 L133.880695,99.248097 L132.661269,97.0531293 L131.441836,96.1995216 L131.441836,94.4923287 L133.027095,93.5167866 L132.661269,93.272903 L130.710185,93.7606703 L128.149385,91.9315356 L126.198301,89.7365603 L122.540024,87.7854763 L119.491448,85.8343922 L120.466998,83.3955409 L120.466998,82.1761153 L119.125623,83.3955409 L116.930655,84.2491412 L114.125971,83.3955409 L109.85797,81.5664063 L105.711926,81.5664063 L105.224158,81.9322317 L100.346448,79.0055981 L98.7611897,78.7617144 L96.6881638,74.3717791 L94.0054213,74.6156627 L91.3226789,75.7131466 L91.6885119,79.1275474 L92.5421045,76.9325797 L93.2737705,77.1764634 L92.1762791,80.4689149 L94.6151304,78.395889 L95.1029052,79.6153147 L92.1762791,82.9077662 L91.2007371,82.6638825 L90.8349116,81.2005657 L89.8593696,80.5908567 L88.8838276,81.4444569 L86.8108017,80.1030894 L84.4938847,81.6883481 L83.1525248,83.2735991 L80.5917241,84.8588578 L77.0553815,84.7369084 L76.689556,83.1516573 L79.4942328,82.6638825 L79.4942328,81.6883481 L77.7870323,81.2005657 L78.5186983,79.371431 L80.2258912,76.444805 L80.2258912,75.1034375 L80.347833,74.4937209 L83.640292,72.7865205 L84.3719429,73.7620625 L86.4449763,73.7620625 L85.4694343,71.810986 L82.6647425,71.5670948 L78.8845237,73.6401207 L77.0553815,76.2009138 L75.714014,78.1520054 L74.8604138,79.8592058 L71.6899041,80.9566821 L69.3729871,82.9077662 L69.1291027,84.1271994 L70.8363009,84.8588578 L71.4460197,86.4441013 L69.3729871,88.8829601 L64.4952852,92.0534774 L58.6420278,95.2239871 L57.0567714,96.0775797 L53.032663,96.9311875 L49.0085486,98.6383804 L50.3499198,99.6139224 L49.252433,100.711406 L48.886606,101.565006 L46.8135817,100.833348 L44.3747304,100.95529 L43.7650123,102.66249 L43.0333592,102.66249 L43.2772435,100.833348 L40.5945003,101.808898 L38.3995334,102.540548 L35.8387358,101.565006 L33.6437673,103.028316 L31.204913,103.028316 L29.6196567,104.003865 L28.4002295,104.613574 L26.8149747,104.369691 L24.8638906,103.516091 L23.1566925,104.003865 L22.4250363,104.735516 L21.2056084,103.881923 L21.2056084,102.418607 L23.5225209,101.443065 L28.278287,101.930839 L31.5707407,100.711406 L33.1559963,99.1261552 L35.3509655,98.6383804 L36.6923352,98.0286638 L38.7653619,98.1506056 L39.984789,99.1261552 L40.7164421,98.8822716 L42.4236403,96.8092457 L44.7405573,96.0775797 L47.3013504,95.5898125 L48.2768955,95.3459289 L48.7646642,95.7117543 L49.3743823,95.7117543 L50.3499198,92.90707 L53.39849,91.8095938 L54.8618038,89.0049095 L56.5690034,85.5905086 L57.7884329,84.4930248 L58.0323172,82.5419407 L56.8128878,83.5174828 L54.2520849,84.0052575 L53.7643162,82.1761153 L52.7887787,81.9322317 L52.057118,82.6638825 L51.9351762,84.8588578 L50.8376886,84.7369084 L49.7402093,80.3469731 L48.7646642,81.3225075 L47.9110685,80.9566821 L47.6671849,79.4933728 L44.6186148,79.6153147 L43.0333592,80.4689149 L41.0822766,80.2250313 L42.1797559,79.1275474 L42.5455821,77.1764634 L42.0578141,75.7131466 L43.155301,74.9814957 L44.1308385,74.8595539 L43.6430697,73.5181789 L43.6430697,70.2257274 L42.9114166,69.494069 L42.3016985,70.5915528 L37.6678773,70.5915528 L36.5703927,69.6160108 L36.0826217,66.6893922 L34.4973661,64.0066422 L34.4973661,63.2749914 L36.0826217,62.6652748 L36.2045642,61.0800162 L37.0581629,60.2264235 L36.4484501,59.8605981 L35.4729081,60.2264235 L34.6193094,58.1533976 L35.3509655,54.3731638 L38.7653619,51.93432 L40.7164421,50.7148869 L42.1797559,47.9102101 L44.2527886,46.9346606 L46.2038711,47.7882683 L46.4477555,49.6174106 L48.2768955,49.3735119 L50.7157468,47.5443772 L51.9351762,48.0321519 L52.6668286,48.5199192 L53.886258,48.5199192 L55.5934577,47.5443772 L56.2031765,44.2519181 C56.2031765,44.2519181 56.4470609,42.056958 56.9348296,41.691125 C57.4225984,41.3252996 57.6664828,40.9594741 57.6664828,40.9594741 L56.8128878,39.4961573 L54.8618038,40.1058739 L52.4229449,40.715583 L50.9596311,40.3497575 L48.2768955,39.0083825 L44.496673,38.8864407 L41.8139297,36.081764 L42.1797559,33.1551379 L42.6675322,31.3259957 L41.0822766,29.9846282 L39.6189613,27.1799364 L39.984789,26.5702274 L45.1063835,26.2044019 L46.6916391,26.2044019 L47.4232922,26.9360528 L47.9110685,26.9360528 L47.7891267,25.7166272 L50.7157468,25.2288599 L52.6668286,25.4727435 L53.7643162,26.3263438 L52.6668286,27.9116024 L52.3010024,29.0090787 L54.374035,30.2285119 L58.1542591,31.5698793 L59.495631,30.8382284 L57.7884329,27.5457769 L57.0567714,25.1069181 L57.7884329,24.4972015 L55.2276315,23.0338922 L54.8618038,22.1802845 L55.2276315,20.9608664 L54.6179194,18.0342403 L52.4229449,14.4978976 L50.5938042,11.3273879 L52.7887787,9.86407112 L55.2276315,9.86407112 L56.5690034,10.3518459 L59.7395147,10.2299041 L62.5441952,7.54716918 L63.3977976,5.23025216 L66.2024834,3.40110991 L67.4219045,4.13276832 L69.4949296,3.64499353 L72.2996131,2.05973491 L73.1532209,1.9377931 L73.8848718,2.54751724 L77.2992651,2.42556789 L79.3722909,0.108658405 L80.2258912,0.108658405 L82.9086336,1.9377931 L84.3719429,3.52305172 L84.0061175,4.37665194 L84.4938847,5.23025216 L85.7133179,4.01082651 L88.639944,4.25471013 L88.8838276,7.05938685 L90.3471444,8.15687823 L95.7126218,8.64464547 L100.46839,11.8151552 L101.565866,11.0835043 L105.468042,13.0345884 L107.053293,12.5468211 L108.51661,11.937097 L112.174887,13.4004138 L115.467346,15.5953815 L115.467346,15.5953815 Z M28.6441154,37.4231315 L30.229371,41.4472414 L30.1074277,42.1788998 L27.9124585,41.9350086 L26.5710888,38.8864407 L25.2297191,37.7889644 L23.4005776,37.7889644 L23.2786358,35.8378728 L24.6200055,34.0087306 L25.473605,35.8378728 L26.5710888,36.9353567 L28.6441154,37.4231315 L28.6441154,37.4231315 Z M26.6930314,62.6652748 L29.4977149,63.2749914 L32.3023969,64.0066422 L32.9121112,64.7383082 L31.6926841,67.5429849 L29.3757716,67.4210431 L26.8149747,64.7383082 L26.6930314,62.6652748 L26.6930314,62.6652748 Z M11.084362,52.0562619 L11.9379622,54.0073384 L12.7915609,55.2267716 L11.9379622,55.8364806 L10.3527058,53.5195711 L10.3527058,52.0562619 L11.084362,52.0562619 L11.084362,52.0562619 Z M0.719230614,107.174375 L3.28002772,105.467175 L5.84082489,104.735516 L7.79190894,104.9794 L8.15773664,106.198825 L9.62104968,106.564658 L11.084362,105.101349 L10.8404768,103.881923 L12.9135034,103.394149 L15.1084726,105.345233 L14.2548732,106.6866 L10.9624202,107.5402 L8.88939278,107.174375 L6.08471078,106.320775 L2.79225678,107.418259 L1.57282962,107.662142 L0.719230614,107.174375 L0.719230614,107.174375 Z M37.6678773,103.759982 L38.8873044,105.223291 L40.4725578,104.003865 L39.3750754,103.028316 L37.6678773,103.759982 L37.6678773,103.759982 Z M39.8628464,106.076884 L40.7164421,104.369691 L42.3016985,104.613574 L41.6919872,106.076884 L39.8628464,106.076884 L39.8628464,106.076884 Z M57.6664828,104.613574 L58.7639696,105.954942 L59.495631,105.101349 L58.8859122,103.638032 L57.6664828,104.613574 L57.6664828,104.613574 Z M64.2513933,95.2239871 L65.1049958,99.6139224 L67.2999627,100.223639 L71.0801852,98.0286638 L74.372639,96.0775797 L73.1532209,94.248445 L73.5190463,92.4193028 L71.9337877,93.3948448 L69.7388216,92.7851282 L70.9582434,91.9315356 L72.421555,92.5412446 L75.348181,91.1998696 L75.714014,90.1023933 L73.8848718,89.4926767 L74.4945808,88.0293599 L72.421555,89.4926767 L68.8852183,92.1754192 L65.2269384,94.3703869 L64.2513933,95.2239871 L64.2513933,95.2239871 Z M96.200389,80.2250312 L98.0295313,79.1275474 L97.2978728,77.7861724 L95.9565054,78.5178308 L96.200389,80.2250312 L96.200389,80.2250312 Z" id="AK"></path>
            </g>
            <g id="fl" transform="translate(485.021552, 325.107759)" fill="#000000" sketch:type="MSShapeGroup">
                <path d="M88.1160453,0.862025862 L89.825056,6.38252155 L92.6384073,13.7312091 L96.6624946,20.8038491 L99.4671638,25.5595948 L103.125433,29.7056315 L106.173986,32.5103006 L107.393404,34.7052608 L106.539811,35.6807953 L105.930102,36.6563297 L108.125055,42.2656756 L110.320015,44.4606282 L112.271092,48.4847231 L114.953819,52.8746433 L118.368197,59.0936907 L119.343739,64.8249709 L119.709565,73.848695 L120.197332,75.190055 L119.953448,77.7508405 L118.124314,78.7263825 L118.368197,80.1896843 L117.88043,81.6529935 L118.124314,83.4821207 L118.490139,84.94543 L116.417128,87.3842737 L114.100226,88.48175 L111.173615,88.6036918 L110.076131,89.8231175 L108.247004,90.5547683 L107.271462,90.1889429 L106.41787,89.457292 L106.173986,87.2623319 L105.564269,84.7015463 L103.003484,80.7993933 L100.320756,79.092208 L97.3941455,78.8483244 L96.7844364,79.8238588 L94.4675345,76.5314224 L93.9797672,73.848695 L92.0286907,70.8001422 L90.6873308,69.946542 L89.4679052,71.5317931 L88.1265453,71.2879095 L86.5412942,67.5076983 L84.3463341,64.5810873 L82.1513739,60.557 L80.200305,58.2400981 L77.5175776,55.4354289 L79.1028211,53.6062942 L81.5416649,49.4602575 L81.4197231,48.2408394 L78.0053448,47.5091886 L76.7859192,47.9969558 L77.0298103,48.4847231 L78.9808793,49.2163739 L77.883403,52.6307597 L77.273694,52.9965851 L75.9323265,49.9480323 L74.956792,46.2897629 L74.7129084,44.2167446 L75.8103847,40.6804246 L75.8103847,33.4858351 L73.4934828,30.6811659 L72.5179483,28.364264 L68.6157953,27.3887295 L67.1524935,26.9009623 L65.9330679,24.9498858 L63.3722823,23.7304601 L62.5186897,21.1696746 L60.4456713,20.4380237 L58.6165366,17.6333545 L55.446042,16.5358782 L53.2510819,15.4383944 L51.3000129,15.4383944 L48.2514526,16.048111 L48.1295108,17.5114127 L48.7392274,18.2430636 L48.3733944,19.0966638 L46.0565,18.974722 L43.2518308,21.6574494 L40.5690959,23.1207511 L37.6424849,23.1207511 L35.2036412,24.0962931 L34.9597575,22.0232748 L33.7403394,20.5599655 L31.5453793,19.7063728 L30.3259612,18.608889 L24.2288481,15.682278 L18.4975679,14.3409181 L15.2051315,14.8286853 L10.6932694,15.1945108 L6.18140733,16.7797619 L3.5569806,17.2421239 L3.37751509,11.1701142 L1.42643858,9.7068125 L0.0850711207,8.36544504 L0.328954741,6.04853556 L8.01131897,5.07300108 L27.2782155,2.87804095 L32.3997942,2.39027371 L36.5002252,2.60168427 L38.4513017,5.5283028 L39.548778,6.62577909 L45.6573039,7.01441487 L53.8187532,6.52664763 L70.0457716,5.5511056 L74.1535345,5.04242134 L78.0062349,5.19668534 L78.3281972,7.39164547 L80.0125722,8.00135453 L80.1897899,4.50889763 L79.0370377,1.36119828 L80.0239774,0.275119612 L84.2138922,0.618142241 L88.1160453,0.862025862 L88.1160453,0.862025862 Z M97.5791778,100.736547 L99.40832,100.24878 L100.383855,100.065867 L101.481346,98.2976961 L103.24951,97.0782705 L104.225052,97.4441034 L105.505448,97.6879871 L105.810303,98.4806088 L103.188546,99.39518 L100.018029,100.492664 L98.2498653,101.407235 L97.5791778,100.736547 L97.5791778,100.736547 Z M107.761387,96.9563287 L108.675958,97.748958 L110.748984,96.1637069 L114.773086,92.9931972 L117.577763,90.0665711 L119.467876,85.0669267 L120.199534,83.7865302 L120.321476,81.2257371 L119.772731,81.5915625 L119.04108,83.7255593 L117.943588,87.2009159 L115.504737,91.1640625 L112.212293,94.3345647 L109.6515,95.7978739 L107.761387,96.9563287 L107.761387,96.9563287 Z" id="FL"></path>
            </g>
            <g id="nh" transform="translate(644.181034, 64.116379)" fill="#000000" sketch:type="MSShapeGroup">
                <path d="M20.214778,38.0359181 L20.8702737,37.223903 L21.6926379,34.7414526 L19.7743664,34.0524127 L19.4085334,31.7355032 L16.4819224,30.8819106 L16.2380388,28.8088847 L10.7506196,11.1272317 L7.27972091,0.157305388 L6.60304418,0.153458405 L6.11527694,1.37288028 L5.6275097,1.00705409 L4.89585129,0.27540097 L3.798375,1.73870647 L3.76179095,5.53443685 L3.99687177,9.80927802 L5.46017349,11.8823039 L5.46017349,14.9308642 L2.65549677,18.7497716 L0.704420259,19.6033793 L0.704420259,20.456972 L1.55802047,21.7983394 L1.55802047,28.2612856 L0.948303879,35.2120065 L0.826362069,38.8702759 L1.55802047,39.8458254 L1.43607866,43.2602037 L1.07024569,44.6015787 L1.80102909,45.1365506 L14.4641422,41.7990668 L16.1046692,41.3446325 L17.4952931,39.252681 L20.2147554,38.0358879 L20.214778,38.0359181 Z" id="NH"></path>
            </g>
            <g id="mi" transform="translate(427.693966, 50.538793)" fill="#000000" sketch:type="MSShapeGroup">
                <path d="M98.7091045,77.8726541 L96.2702608,71.6535991 L94.5630679,64.8248427 L92.7339407,62.3859989 L90.7828642,61.0446315 L89.5634461,61.8982317 L86.6368276,63.2395916 L85.1735259,67.0198028 L83.1005075,69.824472 L82.2469149,70.3122392 L81.149431,69.824472 C81.149431,69.824472 79.1983621,68.7269881 79.3203039,68.2392209 C79.4422457,67.7514537 79.6861293,64.4590172 79.6861293,64.4590172 L82.2469149,63.4834752 L82.8566239,60.9226897 L83.3443912,58.9716207 L85.1735259,57.752195 L84.9296422,50.1917802 L83.7102166,48.4845948 L82.7346821,47.8748782 L82.1249731,46.2896347 L82.7346821,45.6799256 L83.9541002,45.9238093 L84.076042,44.7043836 L82.2469149,42.9971907 L81.2713728,41.0461218 L79.3203039,41.0461218 L75.9059181,39.9486379 L71.759889,37.3878524 L69.6868707,37.3878524 L69.1991034,37.8756272 L68.467445,37.5097942 L66.1505506,35.8026088 L63.9555905,37.1439687 L61.7606304,38.8511616 L62.004514,41.533889 L62.7361649,41.7777726 L64.3214159,42.1435981 L64.6872414,42.7533071 L62.7361649,43.3630237 L60.7850959,43.6069073 L59.6876121,44.9482672 L59.4437284,46.5335183 L59.6876121,47.7529364 L59.9314957,51.8989731 L57.2487683,53.4842241 L56.7610011,53.3622748 L56.7610011,50.1917802 L57.7365356,48.362653 L58.2243103,46.5335183 L57.6145937,45.9238093 L56.151292,46.5335183 L55.4196336,49.7040129 L53.3466228,50.5576056 L52.0052554,52.0209149 L51.8833136,52.7525657 L52.3710808,53.3622748 L51.8833136,55.3133513 L50.1761207,55.6791767 L50.1761207,56.5327769 L50.7858373,58.3619041 L49.9322371,62.995708 L48.712819,66.0442608 L49.2005862,69.5805884 L49.5664116,70.434181 L48.9567026,72.2633157 L48.712819,72.8730248 L48.4689353,74.9460431 L51.1516627,79.4578976 L53.3466228,84.3355851 L54.4440991,87.9938545 L53.8343901,91.5301746 L53.1027392,96.0420366 L51.2736045,99.9441821 L51.0297209,102.0172 L48.5715216,104.344361 L51.8969817,104.222125 L68.0531703,102.514932 L73.5429203,101.770383 L73.6156358,103.027328 L78.784125,102.112756 L86.5520733,100.97893 L89.4593362,100.631261 L89.5634687,100.188066 L89.6854106,99.0905894 L91.2706541,96.2859203 L92.7796972,94.975042 L92.6120216,91.1643491 L93.8166476,89.9597231 L94.6393136,89.7010399 L94.8069817,87.0183125 L95.9654289,84.7319073 L96.7580506,85.1891853 L96.8799925,85.6769526 L97.4897091,85.7988944 L98.9530108,85.0672435 L98.7091272,77.8726541 L98.7091045,77.8726541 Z" id="MI"></path>
                <path d="M11.0274968,6.07899159 L12.4071228,4.52691961 L14.0454246,3.92333481 L18.0980625,0.991634483 L19.8225819,0.560501616 L20.1674978,0.905413039 L16.2873103,4.78560054 L13.7867414,6.25144353 L12.2346649,6.94125733 L11.0274968,6.07899159 L11.0274968,6.07899159 Z M76.0297231,30.3136131 L76.5174903,32.2037187 L78.9563416,32.3256606 L79.9318836,31.4110894 C79.9318836,31.4110894 79.8709353,30.3136131 79.6270291,30.1916638 C79.3831379,30.069722 78.4076034,28.7893254 78.4076034,28.7893254 L76.7613815,28.9722381 L75.5419483,29.09418 L75.2980647,29.9477802 L76.0297231,30.3136131 L76.0297231,30.3136131 Z M0.371188578,28.0702866 L0.911485991,27.6324849 L2.98450431,27.0227683 L5.66723168,25.315583 L5.66723168,24.5839246 L6.15500647,24.0961573 L10.666861,23.3645065 L12.4959957,21.9011972 L15.7884321,20.3159537 L15.9103739,19.3404147 L17.3736832,17.1454553 L18.7150431,16.5357447 L19.6905851,15.194381 L21.3977705,13.4871904 L24.6902144,11.658058 L28.2265345,11.2922318 L29.0801272,12.1458267 L28.8362435,12.8774798 L26.0315744,13.609133 L24.9340981,15.9260342 L23.2269052,16.5357447 L22.8610797,18.3648772 L21.031945,20.8037209 L20.7880614,22.7547974 L21.3977705,23.1206228 L22.1294289,22.2670302 L24.8121563,20.07207 L25.7876907,21.0476045 L27.4948836,21.0476045 L29.9337274,21.7792554 L31.0312037,22.6328556 L32.12868,24.9497575 L34.2016983,27.0227683 L37.1283093,26.9008265 L38.2257931,26.1691756 L39.4452112,27.1447101 L40.6646369,27.5105431 L41.6401713,26.9008265 L42.493764,26.9008265 L43.7131897,26.1691756 L46.7617425,23.4864483 L49.322528,22.6328556 L54.3221573,22.388972 L57.7365356,20.9256627 L59.6876121,19.9501282 L60.7850959,20.07207 L60.7850959,24.3400409 L61.1509213,24.5839246 L63.3458739,25.1936412 L64.8091832,24.8278082 L69.4429871,23.6083901 L70.2965797,22.7547974 L71.3940636,23.1206228 L71.3940636,28.3641358 L73.8329073,30.6810377 L74.8084418,31.168805 L75.7839763,31.9004558 L74.8084418,32.1443394 L74.1987328,31.9004558 L71.3940636,31.5346304 L69.8088125,32.0223976 L68.1016196,31.9004558 L65.6627759,32.9979397 L64.3214159,32.9979397 L59.9314957,32.0223976 L56.0293502,32.1443394 L54.5660409,34.0954159 L49.322528,34.5831832 L47.4933933,35.1928922 L46.6398006,37.5097942 L45.6642662,38.3633944 L45.2984407,38.2414526 L44.2009569,37.0220269 L40.7865787,38.8511616 L40.2988114,38.8511616 L39.4452112,37.631736 L38.8355022,37.7536778 L37.3722004,41.0461218 L36.640542,44.0946746 L34.2409903,49.3754504 L33.3533481,48.5952899 L32.3186304,47.8173545 L30.85468,40.0569946 L28.181042,39.0235517 L26.6327597,37.2990248 L17.4902468,35.2295894 L15.3364871,34.4529213 L9.12819612,32.8140011 L3.17669504,31.9517338 L0.371188578,28.0702866 L0.371188578,28.0702866 Z" id="MI"></path>
            </g>
            <g id="vt" transform="translate(627.586207, 69.396552)" fill="#000000" sketch:type="MSShapeGroup">
                <path d="M9.41693103,41.5307511 L9.65582112,37.4984871 L7.47532866,29.3638761 L6.98756142,29.1199925 L4.79259375,28.1444504 L5.4023028,25.9494903 L4.79259375,24.3642392 L2.7559181,20.8642543 L3.48757651,17.9376358 L2.87785991,14.0354752 L1.04872522,9.15777263 L0.441075431,5.44467241 L20.369472,0.366790948 L20.6023276,4.53225108 L22.0477823,6.60074353 L22.0477823,9.64930388 L19.2514407,13.4645981 L17.3003642,14.3265259 L17.2920668,15.1717834 L18.2801907,16.3176713 L18.045653,22.4260539 L17.5859537,29.4101078 L17.4140086,33.6017651 L18.1456595,34.5773071 L18.0237177,38.0250259 L17.6578922,39.2997274 L18.4228987,39.8482317 L12.8126778,40.9847586 L9.41696875,41.5307511 L9.41693103,41.5307511 Z" id="VT"></path>
            </g>
            <g id="me" transform="translate(650.969828, 23.383621)" fill="#000000" sketch:type="MSShapeGroup">
                <path d="M45.13775,30.7990337 L46.6010593,32.3842818 L48.3082522,35.1889517 L48.3082522,36.652258 L46.7230011,40.1885803 L45.2596918,40.676349 L42.6989062,42.9932502 L39.0406444,47.1392823 L38.0651099,47.1392823 C37.5773427,47.1392823 37.3334515,45.5540358 37.3334515,45.5540358 L35.9920916,45.6759776 L35.2604407,46.7734569 L33.431306,47.8709407 L32.6996552,48.968417 L33.9190733,50.0658933 L33.5532478,50.5536681 L33.1874224,52.6266789 L31.7241131,52.5047371 L31.7241131,51.285319 L31.4802295,50.3097769 L30.3827532,50.5536681 L29.0413858,48.1148244 L27.4561422,49.0903588 L28.4316767,50.1878351 L28.6755603,51.0414353 L28.0658513,52.0169698 L28.3097349,54.3338718 L28.4316767,55.5532899 L27.2122586,57.5043664 L25.0172985,57.8701918 L24.7734149,60.0651519 L20.74932,62.3820539 L19.7737856,62.7478793 L18.5543599,61.650403 L16.237458,64.3331304 L16.9691164,66.7719741 L15.8716325,67.7475086 L15.7496907,71.039945 L14.902389,75.761445 L13.0450884,74.8895 L12.6792554,72.5725905 L9.7526444,71.7189903 L9.50876078,69.6459644 L4.02134159,51.9643114 L0.477154095,40.9214026 L1.54868211,40.8322695 L2.69054957,41.1414606 L2.69054957,39.1903856 L3.67741379,35.7986623 L5.6284903,32.26234 L6.72597414,29.2137857 L5.26266487,27.3846532 L5.26266487,22.8727934 L5.87237392,22.1411403 L6.48209052,20.0681235 L6.36014871,18.9706442 L6.23819935,15.3123793 L7.57956681,11.6541144 L9.77452694,4.94729526 L11.3597705,1.77679914 L12.3353125,1.77679914 L13.310847,1.89874095 L13.310847,2.75233588 L14.286389,4.45952651 L16.3593998,4.94729526 L16.9691164,4.33758394 L16.9691164,3.60593157 L20.0176692,1.4109722 L21.3590291,0.0696085129 L22.4565129,0.191551078 L26.9683675,2.02068351 L28.4316767,2.75233588 L35.2604407,25.3116364 L39.7722953,25.3116364 L40.3820119,26.7749427 L40.5039537,30.4332075 L42.6989063,32.1403974 L43.3086228,32.1403974 L43.4305647,31.7745712 L43.0647392,30.9209763 L45.13775,30.7990337 L45.13775,30.7990337 Z M29.3487144,53.5396282 L30.5071692,52.3811735 L31.5436821,53.1738028 L31.9704784,55.002945 L30.6900819,55.673625 L29.3487144,53.5396282 L29.3487144,53.5396282 Z M34.4093297,49.0887295 L35.7506972,50.4910679 C35.7506972,50.4910679 36.7262392,50.5520162 36.7262392,50.3081476 C36.7262392,50.064264 36.9091519,48.7838675 36.9091519,48.7838675 L37.5798394,48.1741584 L36.9701228,46.8327834 L35.4458427,47.3815291 L34.4093297,49.0887295 L34.4093297,49.0887295 Z" id="ME"></path>
            </g>
            <g id="ri" transform="translate(656.250000, 116.918103)" fill="#000000" sketch:type="MSShapeGroup">
                <path d="M3.07005065,12.7443448 L0.282278017,1.46288685 L5.01126078,0.0710786638 L6.6640528,1.52472522 L9.15817241,4.78383621 L11.1856832,8.10437823 L8.92325,9.32997414 L7.94771552,9.20803233 L7.09412284,10.5493998 L5.26498815,12.0127015 L3.07005065,12.7443448 L3.07005065,12.7443448 Z" id="RI"></path>
            </g>
            <g id="ny" transform="translate(562.715517, 74.676724)" fill="#000000" sketch:type="MSShapeGroup">
                <path d="M63.6482845,62.4158621 L62.7946843,61.6842112 L60.8436002,61.5622694 L59.1364149,60.0989677 L57.9064289,55.4757015 L55.2976767,55.5439666 L53.454361,53.5011433 L38.8318136,56.806486 L6.39512608,63.3913815 L0.71543319,64.317667 L0.158631466,59.4385313 L1.23586207,58.5896455 L2.21139655,57.7360528 L2.94305496,56.5166272 L4.28441487,55.6630345 L5.74772414,54.321667 L6.11354957,53.1022489 L7.6987931,51.0292306 L8.55239332,50.2975797 L8.43045151,49.5659213 L7.45490948,47.2490269 L6.11354957,47.1270851 L4.6502403,42.4932812 L6.84520043,41.1519138 L10.1376369,40.0544375 L13.1861972,39.0788955 L15.6250409,38.71307 L20.3807791,38.5911282 L21.8440884,39.5666703 L23.0635065,39.6886121 L24.6487575,38.71307 L26.5998341,37.8594774 L30.5019795,37.4936519 L32.0872306,36.1522845 L33.4285905,33.7134407 L34.6480162,32.250139 L36.2332597,32.250139 L37.696569,31.3965388 L37.8185108,29.6893534 L36.7210345,28.1041024 L36.4771509,27.0066261 L37.3307435,25.421375 L37.3307435,24.3238987 L35.9893761,24.3238987 L34.6480162,23.7141897 L34.0383071,22.8605894 L33.9163653,20.9095129 L38.306278,16.7634838 L38.7940453,16.1537748 L39.8915291,13.9588147 L42.0864892,10.5444289 L44.1595075,7.7397597 L45.7447511,5.91063254 L47.566486,4.53355603 L49.8907877,3.5937306 L54.0368168,2.61818858 L56.4756606,2.74013039 L59.8900463,1.64265409 L65.5965474,0.0803491379 L65.9886304,3.83656573 L67.8177726,8.71426832 L68.4274817,12.6164289 L67.6958308,15.5430474 L69.6469073,18.9574332 L70.2566164,20.5426843 L69.6469073,22.7376519 L71.841875,23.7131864 L72.3296422,23.95707 L74.6465517,32.2491584 L74.2420226,36.0657198 L73.8761972,44.2358588 L74.4859063,48.381903 L75.0956153,51.0646379 L76.1930991,56.5520496 L76.1930991,62.6491703 L75.3394989,64.3563631 L76.7269246,65.8595453 L77.3277705,67.1255948 L75.8644688,68.4669623 L76.1083524,69.4424968 L77.0838869,69.1986131 L78.1813707,68.2230787 L79.888556,66.2720022 L80.7421563,65.7842349 L81.9615744,66.2720022 L83.6687672,66.393944 L89.643931,63.467333 L91.8388912,61.3943147 L92.8144256,60.2968384 L95.9849203,61.5162565 L93.4241347,64.1989838 L90.4975237,66.393944 L85.132069,70.4180313 L83.181,71.1496897 L78.7910797,72.6129914 L75.7425269,73.4665916 L74.8564084,73.064597 L74.6723416,70.2823006 L75.038167,68.2092748 L74.9162252,66.6240313 L72.7939655,65.342458 L69.3795797,64.6107996 L66.4529612,63.7572069 L63.6482845,62.4158319 L63.6482845,62.4158621 Z" id="NY"></path>
            </g>
            <g id="pa" transform="translate(554.418103, 127.478448)" fill="#000000" sketch:type="MSShapeGroup">
                <path d="M67.9812392,36.728917 L68.968194,36.5244989 L70.7253825,35.5791595 L71.6395162,33.7061541 L72.8589418,31.9989612 L75.2977856,29.6820517 L75.2977856,29.0723427 L73.4686509,27.8529246 L70.7859159,26.0237823 L70.0542651,24.0727058 L67.9812392,23.8288222 L67.8592974,22.975222 L67.2495884,20.9022037 L68.9567888,20.048611 L69.0787306,18.2194687 L68.103181,17.2439267 L68.2251228,16.0245011 L69.6884397,13.7075991 L69.6884397,11.3906897 L71.7232899,9.394875 L71.0291131,8.8857306 L69.1251735,8.74021659 L67.3944159,7.27691487 L66.2252953,2.66350754 L63.5817543,2.73933082 L61.7297489,0.700181034 L48.083528,3.86660237 L15.6468405,10.4514978 L8.94000323,11.5489741 L8.47182543,6.6298222 L4.42681358,10.452403 L3.45127155,10.8182284 L0.281440733,13.0878653 L2.47705711,27.5234418 L4.34899892,34.8623987 L7.04324461,49.3915399 L9.50931897,48.9105312 L18.5184849,47.7772026 L47.1269343,41.9952629 L58.3482134,39.8656034 L64.6092532,38.6418405 L64.8107371,38.4619149 L66.3959957,37.2424817 L67.9812392,36.728917 L67.9812392,36.728917 Z" id="PA"></path>
            </g>
            <g id="nj" transform="translate(621.551724, 136.530172)" fill="#000000" sketch:type="MSShapeGroup">
                <path d="M4.28404526,0.347103448 L2.53212177,2.40959159 L2.53212177,4.72650108 L1.06880496,7.04340302 L0.946863147,8.26283621 L1.92241272,9.23837069 L1.80047091,11.0675129 L0.0932704741,11.9211056 L0.702979526,13.9941239 L0.824921336,14.8477241 L2.8979472,15.0916078 L3.62959806,17.0426843 L6.31233297,18.8718265 L8.14146767,20.0912446 L8.14146767,20.7009612 L5.89120151,22.7350043 L4.67177586,24.4421897 L3.57429203,26.5152155 L1.86709914,27.49075 L1.51826832,28.6995172 L1.33534806,29.6140884 L0.875799569,31.5803793 L1.69971013,33.273195 L4.13855388,35.4681552 L7.79681573,37.1753481 L10.8453685,37.6631153 L10.9673103,38.7605916 L10.3576013,39.4922425 L10.6014849,41.5652608 L11.211194,41.5652608 L12.796445,39.7361336 L13.4061541,36.0778642 L15.4791724,33.0293114 L17.7960744,28.1516239 L18.649667,24.0055948 L18.1618998,23.1519946 L18.039958,16.079347 L16.8205323,13.518569 L15.9669397,14.128278 L13.8939213,14.3721616 L13.5280959,14.0063362 L14.3816961,13.2746778 L15.9669397,11.8113761 L16.0145366,10.9862888 L15.7245873,8.39610776 L16.1570862,6.3230819 L16.0684774,4.83783728 L13.9507209,3.51753017 L10.109667,2.63064224 L6.98875323,1.58846444 L4.28407543,0.347103448 L4.28404526,0.347103448 Z" id="NJ"></path>
            </g>
            <g id="de" transform="translate(618.534483, 163.685345)" fill="#000000" sketch:type="MSShapeGroup">
                <path d="M4.24382543,3.2277694 L4.52164547,1.60834806 L4.80456466,0.332771552 L3.58031897,0.632806034 L2.36176078,0.985491379 L0.697556034,2.31632112 L1.99506034,6.12021767 L3.70226078,10.3881961 L5.28750431,17.7047425 L6.5069375,22.4605032 L10.2871487,22.3385614 L14.9202134,21.4479623 L13.2122812,15.8764224 L12.4806228,16.2422478 L9.79789547,14.4131207 L8.45653556,10.8767931 L6.99322629,8.19406573 L4.61932112,6.02896121 L3.96747629,4.44632759 L4.24382543,3.2277694 L4.24382543,3.2277694 Z" id="DE"></path>
            </g>
            <g id="md" transform="translate(574.030172, 165.948276)" fill="#000000" sketch:type="MSShapeGroup">
                <path d="M59.4334321,19.1706164 L54.9011207,20.0786853 L51.021778,20.1672866 L49.6311616,14.9457015 L48.1792575,8.02918858 L46.2387037,3.36117672 L45.2668653,0.0434709052 L39.6049968,1.26723384 L28.3837177,3.39689332 L0.133716595,9.0926153 L0.987067888,12.8729623 L1.71871875,17.1409332 L1.96260237,16.8970496 L3.54786099,15.0679224 L5.25504634,13.0933944 L7.08418103,12.6290711 L8.18167241,11.5315873 L9.52303233,9.58051078 L10.4985668,10.0682856 L12.6935269,9.8243944 L14.644611,8.23915086 L16.1584289,7.14293427 L17.550305,6.77710884 L18.7906552,7.62944181 L20.9856153,8.7269181 L22.448917,10.0682856 L23.3634881,11.2267403 L26.4730194,12.5071293 L26.4730194,14.7020894 L30.619056,15.6776315 L31.482319,16.0864526 L32.5473297,14.5564698 L34.7212295,16.0425819 L33.7570927,17.9147274 L33.1798416,20.9211519 L31.8384817,22.8722284 L31.8384817,24.4574795 L32.3262489,25.798847 L36.1460388,26.821458 L39.3979461,26.774917 L41.7148405,27.5065754 L43.3000916,27.7504591 L44.0317425,26.165208 L42.9342662,24.5799644 L42.9342662,23.238597 L41.1051315,21.6533459 L39.5198879,17.5073168 L40.4954224,13.483222 L40.3734806,11.8979784 L39.3979461,10.9224364 C39.3979461,10.9224364 40.4954224,9.70301832 40.4954224,9.21525108 C40.4954224,8.72747629 40.8612478,7.63 40.8612478,7.63 L42.3245571,6.65446552 L43.7878588,5.43503987 L44.1536843,6.16669828 L43.056208,7.38611638 L42.0806735,10.1907856 L42.3245571,11.0443782 L43.665917,11.2882619 L44.0317425,15.4342985 L42.4464989,16.1659494 L42.6903825,18.8486767 L43.056208,18.7267349 L43.9098006,17.2634332 L45.1292263,18.6047931 L43.9098006,19.5803351 L43.665917,22.1411207 L45.6169935,24.7019063 L48.5436045,25.0677317 L49.7630302,24.4580226 L52.2043933,27.61325 L53.2290108,28.0177866 L58.2479429,25.9080183 L59.7622812,22.8727716 L59.4334321,19.1706315 L59.4334321,19.1706164 Z M47.3874127,25.9810733 L48.2410054,27.8711864 L48.3629472,29.2125539 L49.2165474,30.6148922 C49.2165474,30.6148922 49.8872349,29.9442047 49.8872349,29.7003211 C49.8872349,29.4564375 49.3384968,27.3834116 49.3384968,27.3834116 L48.7897511,25.6152403 L47.3874127,25.9810733 L47.3874127,25.9810733 Z" id="MD"></path>
            </g>
            <g id="va" transform="translate(530.280172, 176.508621)" fill="#000000" sketch:type="MSShapeGroup">
                <path d="M97.0336153,18.9097457 L96.9250625,17.4410808 L101.792952,15.51768 L101.211823,17.94493 L99.0092748,20.7955517 L98.6939052,24.2546832 L99.042208,26.8121272 L97.6633513,30.5672047 L96.03082,32.012569 L94.9217274,28.511958 L95.2580668,24.4016379 L96.4551573,21.246305 L97.0336153,18.9097457 L97.0336153,18.9097457 Z M99.5531552,40.2577543 L55.6717694,49.7435312 L27.4402188,53.7255884 L22.4026853,53.4425862 L20.4526045,54.8956746 L14.9166228,55.0621433 L8.59391056,55.7996099 L0.360643319,57.0175345 L8.25784267,52.7849483 L8.24796121,51.2198071 L9.39455065,49.6009591 L17.3553761,40.9253114 L20.3324278,44.3027058 L23.1859914,45.0298459 L25.1045496,44.1696907 L26.7921078,43.1806692 L28.7054989,44.1941002 L31.6579978,43.1171261 L33.0736347,39.6802317 L35.0355356,40.0875744 L37.1892726,38.4799504 L38.5464806,38.852278 L40.6790744,36.0790032 L40.9417629,34.5076918 L40.2148642,33.5455162 L40.971264,32.1374978 L44.9497004,22.8767166 L45.4149364,18.5506864 L46.3419009,18.1557748 L47.9851886,19.9984569 L50.9540485,19.7712812 L52.4092716,14.0584138 L54.5168071,13.6353513 L55.3086444,11.5677338 L57.2546293,9.79745797 L59.3454494,5.50151724 L59.4094903,1.67901185 L66.8179569,4.56260453 C67.3315291,4.81938685 67.4462069,0.753978448 67.4462069,0.753978448 L70.2013707,1.9596153 L70.2528901,4.17589978 L74.6160097,5.15611853 L76.2249159,6.04333836 L77.4770108,7.59396659 L76.9832769,10.3461961 L75.5143028,12.3005991 L75.5971638,13.8537769 L76.0414224,15.2514461 L79.796945,16.208236 L83.1545841,16.238333 L85.4694343,16.961445 L86.935444,17.1947532 L87.4746325,19.5244106 L89.8812144,19.8280431 L90.5360086,20.7332306 L90.2044968,24.2710065 L91.2414698,25.1026713 L90.8801929,26.5587845 L91.8075496,27.1545162 L91.6402435,28.1989343 L89.608139,28.1273502 L89.6752726,29.3459537 L91.395847,30.5097565 L91.4875259,31.5747672 L92.8250011,32.9214978 L93.1959634,34.8254752 L91.2701789,35.8674116 L92.4561207,36.9945776 L96.8318901,35.7229386 L99.5531552,40.2577996 L99.5531552,40.2577543 Z" id="VA"></path>
            </g>
            <g id="wv" transform="translate(537.823276, 161.422414)" fill="#000000" sketch:type="MSShapeGroup">
                <path d="M36.3468287,13.5529278 L37.1856293,17.2826379 L38.0028793,21.8321325 L39.6097791,19.8857554 L41.3169644,17.5688459 L43.2316907,17.1045302 L44.3291746,16.0070539 L45.670542,14.0559774 L46.7605054,14.5437446 L48.9554655,14.299861 L50.9065496,12.7146099 L52.4203675,11.6184009 L53.8122435,11.2525679 L54.7958039,12.0193017 L57.543945,13.3933761 L59.0072543,14.7347435 L60.0437672,15.710278 L59.469194,19.9004267 L55.067861,17.9835582 L51.865625,16.7600517 L51.7893341,20.666195 L49.7167608,24.8426078 L47.808333,26.6730625 L46.9091272,28.7469558 L44.9150474,29.1241864 L44.2377974,31.8411218 L43.4508782,34.8203987 L40.4575937,35.0774224 L38.7047802,33.23775 L37.8968006,33.6597187 L37.4195636,37.78557 L36.4010259,40.45168 L32.6608534,48.7151272 L33.337236,49.5906552 L33.1819537,51.0302866 L31.0633297,53.9603825 L29.6991595,53.549819 L27.4603287,55.1789332 L25.5425851,54.7473093 L24.0345453,58.1836228 C24.0345453,58.1836228 21.576014,59.2624526 21.0754537,59.2153082 C20.9543793,59.2039181 19.212986,58.2730991 19.212986,58.2730991 L17.4505248,59.3135722 L15.6327877,60.1013739 L12.8081293,59.4307015 L11.9622457,58.5494558 L10.3086315,56.2689041 L7.93814332,54.7692446 L6.64708836,52.0361972 L3.41495905,49.4201056 L2.92718427,47.7129127 L0.976107759,46.6154289 L0.366391164,45.3960108 L0.183478448,41.4328793 L1.82970043,41.371931 L3.29301724,40.762222 L3.41495905,38.6892037 L4.63437716,37.5917198 L4.75631897,33.8115086 L5.48796983,30.8848901 L6.46351185,30.3971228 L7.43904634,31.2507155 L7.80487931,32.592083 L9.14624677,31.8604246 L9.5120722,30.6410065 L8.65847953,29.299639 L8.65847953,27.4705043 L9.39013039,26.4949623 L11.0973233,23.9341767 L12.0728578,22.8367004 L13.6581164,23.2025259 L15.3653017,21.9830927 L17.6822037,19.4223071 L19.3894041,16.4956886 L19.6332877,12.2277177 L19.9991131,8.44749892 L19.9991131,4.91117134 L19.1455205,2.5942694 L19.8771713,1.49677802 L20.8453136,0.521243534 L23.4787996,15.4770453 L26.9720183,14.910445 L36.3468287,13.5529504 L36.3468287,13.5529278 Z" id="WV"></path>
            </g>
            <g id="oh" transform="translate(500.862069, 140.301724)" fill="#000000" sketch:type="MSShapeGroup">
                <path d="M53.8011627,0.247655172 L49.2047425,3.30513901 L46.2781315,5.0123319 L43.7173459,7.81700108 L40.6687931,10.7436121 L38.2299494,11.3533211 L36.0349892,11.7191466 L31.8889526,13.6702231 L30.3037091,13.7921649 L27.7429235,11.4752629 L23.8407705,11.9630377 L21.8897015,10.8655539 L20.0936358,9.84660884 L16.4031196,10.3771983 L8.72075539,11.5966239 L0.267297414,13.2445884 L1.24283944,24.2803599 L2.5842069,34.6454666 L4.53527586,52.3271045 L4.96207974,55.971306 L8.07161099,55.8739849 L9.90074569,55.2642683 L12.4380948,56.3981024 L13.9998869,59.6905388 L17.8762425,59.6776401 L19.3032015,61.2757974 L20.6316703,61.2265409 L22.5464041,60.2146638 L24.4353254,60.4948901 L28.524653,60.8589806 L29.8273244,59.250278 L31.5966724,58.2747435 L33.1584644,57.7611713 L33.6462317,59.8341972 L34.9876067,60.5658481 L37.6093556,62.3340043 L39.2555776,62.273056 L40.2611638,61.9015733 L40.4004925,59.8185226 L41.5963459,58.7210312 L41.6711735,55.105833 L42.4435571,52.0063265 L43.4236099,51.5527748 L44.4203179,52.4185269 L44.82625,53.6986067 L46.1230075,52.91607 L46.4541347,51.8142112 L45.6118039,50.3787134 L45.6618147,48.6329149 L46.2267931,47.8240603 L47.8506422,45.3299483 L48.6428341,44.1657909 L50.2280851,44.5316164 L51.935278,43.3121907 L54.25218,40.7514052 L56.3427435,37.6747769 L56.5843718,33.8613534 L56.9501972,30.0811347 L56.8168502,26.0781002 L56.0966045,23.8945377 L56.3615485,22.9970744 L57.7226185,21.6769483 L55.9961606,14.8524537 L53.8012004,0.247670259 L53.8011627,0.247655172 Z" id="OH"></path>
            </g>
            <g id="in" transform="translate(466.918103, 152.370690)" fill="#000000" sketch:type="MSShapeGroup">
                <path d="M0.429609914,68.6206078 L0.478866379,66.4643513 L0.844699353,63.049958 L2.5518847,60.8550054 L3.8932597,57.9283793 L5.84432866,54.7578847 L5.47850323,50.3679569 L4.13714332,48.2949386 L3.8932597,45.8560948 L4.50296875,41.7100506 L4.13714332,36.4665302 L3.16159375,24.3942381 L2.18605927,12.8097209 L1.45402371,3.96918858 L3.77055603,4.64015517 L4.86803987,5.37180603 L5.72163254,5.12792241 L7.30688362,3.66462069 L9.44125754,2.44490841 L13.2828093,2.32267996 L29.8669784,0.615479526 L34.0728093,0.213311422 L35.2066433,12.2492457 L38.4134806,40.039208 L38.8649052,44.3927856 L38.5846789,46.0999784 L39.5109569,47.4542446 L39.5836724,48.4895733 L37.6818373,49.6961002 L35.0120086,50.8662694 L32.5966088,51.2813513 L32.1451843,54.9525269 L28.6944483,57.4511573 L26.5850797,60.4762737 L26.8289634,62.2690657 L26.3904526,63.4263287 L23.8812619,63.4263287 L22.6852802,62.2069106 L20.8045506,63.1590011 L18.7807662,64.2928351 L18.9027155,66.5968384 L18.0022274,66.7914731 L17.6493006,66.0234795 L16.0148006,64.8896455 L13.5630506,65.9015377 L12.3928815,68.1691832 L11.3083039,67.5594741 L10.21082,66.3529472 L6.8433222,66.7187802 L2.62459267,67.450431 L0.429632543,68.6206078 L0.429609914,68.6206078 Z" id="IN"></path>
            </g>
            <g id="il" transform="translate(420.150862, 143.318966)" fill="#000000" sketch:type="MSShapeGroup">
                <path d="M47.1756627,77.9522716 L47.1991972,75.5160679 L47.6271853,72.0115722 L49.3866369,69.8121088 L50.7946703,66.7377209 L52.4790603,63.7240022 L52.1988341,59.7620625 L50.6862834,57.0898653 L50.6135679,54.56543 L51.1376853,50.5905841 L50.51507,45.1758653 L49.7107188,33.2747716 L48.7351843,21.9470366 L48.0394989,13.1674677 L47.8339418,12.4724537 L47.2242328,10.5213772 L46.2486983,7.71670797 L45.0292726,6.37534052 L43.9317963,4.42427155 L43.7556121,0.283892241 L9.21089116,2.24377909 L9.38334159,4.03296552 L11.1078685,4.55032435 L11.7976703,5.41258405 L12.1425787,6.79220259 L15.0742662,9.37898922 L15.5916325,11.1035162 L15.0742662,13.6903028 L13.6946476,16.4495399 L13.1772963,18.3465097 L11.4527694,19.7261358 L10.0731509,20.2434946 L6.10674569,21.2782047 L5.58938685,22.6578233 L5.07202802,24.2098998 L5.58938685,25.2446175 L6.96900539,26.4517856 L6.79655496,29.5559235 L5.41692888,30.7630916 L4.89957759,31.9702597 L4.89957759,34.0396875 L3.51995905,34.3845884 L2.31279095,35.2468556 L2.14034052,36.2815733 L2.31279095,37.8336422 L1.01939763,38.825236 L0.243363147,40.9377877 L0.588264009,43.6970172 L2.31279095,49.2154989 L7.83127263,54.906431 L11.9701207,57.6656681 L11.7976703,60.942264 L12.4874871,61.9769817 L17.3161519,62.3218825 L19.3855797,63.3566002 L18.8682284,66.1158373 L17.1437015,70.5996013 L16.6263427,73.0139375 L18.3508621,75.945625 L23.1795345,79.9120302 L26.6285884,80.429389 L28.1806498,84.2233438 L29.7327263,86.6376724 L29.042917,88.8795506 L30.2500851,91.9836961 L31.6297037,93.5357726 L32.6963211,92.8714591 L33.3809784,91.3064235 L35.0503276,89.9884925 L36.6581175,89.5250442 L38.6212328,90.4149795 L41.3571088,91.4526843 L42.2539461,91.2277263 L42.4047101,89.5241541 L41.4336864,87.7049159 L41.6631627,85.9121315 L43.0498869,84.895736 L45.32982,84.2845259 L46.28093,83.9386595 L45.8188319,82.8925216 L45.2218933,81.1165959 L46.3025183,80.3766476 L47.1756099,77.9522716 L47.1756627,77.9522716 Z" id="IL"></path>
            </g>
            <g id="ct" transform="translate(636.637931, 117.672414)" fill="#000000" sketch:type="MSShapeGroup">
                <path d="M22.6808373,11.9655345 L19.9069138,0.742294181 L16.3474591,1.43649353 L0.33437069,5.01425539 L1.08882435,7.44741164 L2.18630819,12.9348233 L2.31965517,19.6986638 L1.39938147,21.3391907 L2.84825323,22.7967748 L6.0703125,19.8507101 L8.75303987,17.4118664 L10.2163416,15.8266153 L10.8260582,16.3143825 L12.899069,15.2169063 L16.801222,14.3633136 L22.6808373,11.9655345 L22.6808373,11.9655345 Z" id="CT"></path>
            </g>
            <g id="wi" transform="translate(400.538793, 72.413793)" fill="#000000" sketch:type="MSShapeGroup">
                <path d="M63.4117705,71.1832565 L63.361458,68.8015819 L62.4720431,65.3871961 L61.9842759,60.7533998 L61.1306832,58.9242651 L61.8623341,56.6073631 L62.4720431,54.412403 L63.5695269,52.4613341 L63.0817522,49.9005485 L62.5939849,47.2178211 L62.9598103,45.8764537 L64.4231196,44.047319 L64.5450614,41.9743006 L63.9353524,40.9987662 L64.4231196,39.0476897 L64.0817791,35.90168 L66.1547974,31.6337091 L68.3497575,26.5121379 L68.4716994,24.804945 L68.2278157,24.0732942 L67.6180991,24.4391196 L64.4476045,29.1948653 L62.3745862,32.2434181 L60.9112845,33.5847856 L60.3015754,35.2919709 L58.8269364,35.90168 L57.9733437,37.3649892 L56.8758599,37.1211056 L56.7539181,35.7797381 L57.7294601,33.950611 L59.3147037,30.4142834 L60.6560711,29.1948653 L61.4034644,27.4163147 L59.4720905,25.9821142 L57.9824634,18.1621864 L55.30657,17.149917 L53.838486,15.4087198 L44.6889203,13.3557586 L42.5196067,12.5923588 L36.3243653,10.9575496 L30.3517963,10.0834925 L27.5116972,6.213375 L26.9456627,6.63127047 L26.0420668,6.50932866 L25.554292,5.65573599 L24.5480345,5.87942672 L23.6944343,6.00136853 L22.3530744,6.7330194 L21.6214159,6.24525216 L22.1091907,4.78194289 L23.5724925,2.46504095 L24.4260851,1.61144828 L22.9627834,0.513971983 L21.3775323,1.12368103 L19.1825722,2.58698276 L13.5732338,5.02582651 L11.3782737,5.51359375 L9.18332112,5.14776832 L8.44279203,4.48529526 L6.84614332,6.62390086 L6.67369289,8.69332866 L6.67369289,15.0740625 L5.81142565,16.2812381 L1.84502047,19.2129181 L0.120501078,23.6966821 L0.46540194,23.8691325 L2.36237931,25.4212091 L2.8797306,27.8355453 L1.50011207,30.2498739 L1.50011207,33.181569 L1.84502047,38.1826843 L4.08689871,40.42457 L6.67369289,40.42457 L8.05331142,42.8389063 L10.6400905,43.1838071 L13.5717856,47.4951207 L18.9178093,50.5992662 L20.4698782,52.668694 L21.159695,58.2734009 L21.6770463,60.7739547 L23.4015733,61.9811228 L23.5740237,63.0158405 L22.0219547,65.6026196 L22.1944052,68.0169634 L24.0913825,70.9486509 L25.9883599,71.8109106 L28.2302381,72.1558114 L29.2427791,73.1968502 L63.4118006,71.1832565 L63.4117705,71.1832565 Z" id="WI"></path>
            </g>
            <g id="nc" transform="translate(521.982759, 216.487069)" fill="#000000" sketch:type="MSShapeGroup">
                <path d="M107.852447,0.238015086 L109.425184,3.94722306 L112.107912,8.82491056 L113.937039,10.6540453 L114.424806,12.3612381 L112.595679,12.48318 L113.205388,12.9709472 L112.961504,16.1414418 L111.010428,17.1169763 L110.522661,18.7022274 L109.547126,20.8971875 L106.742449,22.1166056 L104.913322,21.872722 L103.815838,21.7507802 L102.59642,20.7752457 L102.840304,21.7507802 L102.840304,22.4824386 L104.303613,22.4824386 L104.913322,23.4579731 L103.450013,28.2137188 L106.620508,28.2137188 L107.108282,29.4331369 L108.815468,27.7259515 L109.79101,27.3601185 L108.3277,30.0428459 L106.010798,33.7011153 L105.035264,33.7011153 L104.181664,33.3352899 L102.108653,33.8230571 L98.2065,35.6521918 L93.3288125,39.6762791 L90.7680269,43.2125991 L89.3047252,48.0902866 L88.9388998,49.9194213 L85.4025722,50.2852468 L81.2892198,51.2935032 L73.7865399,45.10625 L64.2750334,39.3749623 L62.0800733,38.7652457 L52.5685744,39.8627295 L49.3427963,40.4285754 L48.1233782,37.9897241 L45.882805,36.3930754 L33.4446875,36.7589009 L27.9572759,37.3686099 L21.1285119,40.7830032 L16.4947004,42.7340722 L0.520255388,44.6851563 L0.897478448,41.6269332 L2.23884591,40.5294569 L4.31187177,40.0416821 L4.79963901,37.2370054 L7.97014116,35.1639946 L10.8967522,34.0665032 L14.0672619,31.3837759 L17.3596983,29.7985248 L17.8474655,27.4816153 L20.7740841,24.5550043 L21.2618513,24.4330625 C21.2618513,24.4330625 21.2618513,25.2866627 21.8715679,25.2866627 C22.4812769,25.2866627 23.3348772,25.5305463 23.3348772,25.5305463 L25.04207,22.8478114 L26.6273211,22.3600366 L28.3345065,22.6039278 L29.5539397,19.9212004 L31.7488998,17.9701164 L32.1147252,16.3848653 L32.2561584,13.6329978 L35.4819666,13.6160259 L40.9119375,12.9704946 L52.7977791,11.2714634 L64.2150506,9.69754203 L80.5386886,6.1376875 L95.6123136,2.92540409 L104.043195,1.11067672 L107.852447,0.238030172 L107.852447,0.238015086 Z M111.073699,25.2860744 L113.024783,23.3959612 L115.402656,21.4448772 L116.561111,20.9571099 L116.683053,19.4328297 L116.195286,14.7990108 L115.097802,13.030847 L114.610027,11.6285086 L115.158773,11.4455884 L117.231798,15.5916401 L117.536653,18.945055 L117.414711,21.5058556 L114.853918,22.6643028 L112.719921,24.493445 L111.866329,25.4080162 L111.073699,25.2860744 L111.073699,25.2860744 Z" id="NC"></path>
            </g>
            <g id="dc" transform="translate(604.956897, 180.280172)" fill="#000000" sketch:type="MSShapeGroup">
                <path d="M2.88105065,3.65375862 L1.47933082,2.27776832 L0.549545259,1.76009267 L1.63802263,0.234522629 L3.8172931,1.70429634 L2.88105065,3.65375862 L2.88105065,3.65375862 Z" id="DC"></path>
                <ellipse cx="2.88105065" cy="3.65375862" rx="2.26293103" ry="2.26293103"></ellipse>
            </g>
            <g id="ma" transform="translate(635.883621, 101.831897)" fill="#000000" sketch:type="MSShapeGroup">
                <path d="M42.7116843,23.5751703 L44.349986,23.0578039 L44.6949019,21.7644106 L45.4709364,21.8506358 L46.2469709,23.5751703 L45.298486,23.9200711 L42.3667834,24.0063039 L42.7116843,23.5751703 L42.7116843,23.5751703 Z M35.6411261,24.1787543 L37.3656455,22.1955442 L38.5728211,22.1955442 L39.9524472,23.3164871 L38.141695,24.0925216 L36.5033933,24.868556 L35.6411261,24.1787543 L35.6411261,24.1787543 Z M9.39178233,7.59283513 L22.7029989,4.0923222 L24.4101994,3.60455496 L25.8540097,1.49572198 L28.672694,0.241070043 L30.8520776,3.56972091 L29.0229429,7.47187392 L28.7790593,8.56935022 L30.2423685,10.5204267 L31.0959612,9.91071767 L32.4373287,9.91071767 L34.144514,11.8617866 L37.0711325,16.3736487 L39.7538599,16.7394741 L41.4610453,16.0078233 L42.8024127,14.6664558 L42.1926961,12.593445 L40.6074526,11.3740194 L39.5099687,11.9837284 L38.7783179,11.008194 L39.1441433,10.6423685 L40.7293944,10.5204267 L42.0707543,11.1301358 L43.5340636,12.9592705 L44.2657144,15.1542306 L44.5095981,16.9833578 L41.3391034,18.0808416 L38.4124925,19.5441433 L35.4858815,22.9585291 L34.0225722,24.0560054 L34.0225722,23.3243545 L35.8517069,22.2268707 L36.2175323,20.8855108 L35.6078233,18.5686088 L33.4128631,19.6660851 L32.8031541,20.763569 L33.1689795,22.4707543 L31.6103254,23.225389 L29.5380841,19.810528 L26.9772909,16.5180841 L25.4154914,15.1509192 L20.4873782,16.5661562 L16.646181,17.358778 L1.05069397,20.8227295 L0.54699569,17.2262909 L1.03476293,9.2390722 L4.27020366,8.5683847 L9.39178233,7.59283513 L9.39178233,7.59283513 Z" id="MA"></path>
            </g>
            <g id="tn" transform="translate(440.517241, 229.310345)" fill="#000000" sketch:type="MSShapeGroup">
                <path d="M84.9940905,5.47185022 L45.8505959,9.25206897 L33.9629968,10.5934289 L30.4771778,10.9801713 L27.5592414,10.9592769 L27.3925614,14.0525754 L21.2182446,14.2517209 L15.9747241,14.7394881 L9.87172737,14.6460593 L8.80529849,19.9811907 L7.52581466,24.1148491 L5.04174246,26.1898362 L4.02437392,29.4945151 L3.7804903,31.4455916 L0.731929957,33.1527769 L1.82940625,35.8355119 L1.09775539,39.1279558 L0.367296336,39.723597 L81.9524095,31.8730744 L82.2566002,28.8898222 L83.6224526,27.7656056 L85.7602813,27.2002877 L86.267125,24.3965312 L89.3587414,22.3561519 L92.4113825,21.2291897 L95.4916692,18.5360528 L98.8378578,17.0082274 L99.2310496,14.6944935 L102.297019,11.6885744 L102.712494,11.6024547 C102.712494,11.6024547 102.736028,12.4560474 103.345775,12.4560474 C103.955484,12.4560474 104.809084,12.7235032 104.809084,12.7235032 L106.516277,10.0171961 L108.077956,9.52942888 L109.794095,9.75210884 L110.999717,7.08723599 L113.228892,5.09290733 L113.54697,3.63021659 L113.780022,0.830857759 L112.160857,0.680169181 L110.198383,2.21015948 L104.923256,2.23210991 L91.0746541,4.03251293 L84.9940905,5.47188793 L84.9940905,5.47185022 Z" id="TN"></path>
            </g>
            <g id="ar" transform="translate(383.189655, 245.150862)" fill="#000000" sketch:type="MSShapeGroup">
                <path d="M64.7385119,8.33736207 L61.7364472,8.87797629 L57.8802996,8.39972091 L58.1976379,7.19126293 L60.4452942,5.25518211 L61.1568955,2.49723491 L59.7772769,0.255349138 L0.626092672,2.15232651 L1.83326078,7.32590733 L1.83325323,13.5341983 L2.86797845,21.8119925 L3.04042888,50.3527802 L4.76495582,51.8186239 L7.00683405,50.7839138 L9.0762694,51.6461735 L9.5894569,56.6044817 L51.5451487,55.7441153 L52.4093093,54.1673276 L52.1931088,51.4898955 L50.8160172,49.2480097 L52.0219256,48.1277004 L50.8160172,46.23325 L51.3321164,44.3400593 L52.3643071,40.1118254 L54.2638039,38.5559623 L53.746445,36.832695 L56.5056897,32.7806983 L58.5751175,31.7485075 L58.4895183,30.6218847 L58.2289494,29.2447856 L60.3839763,25.0216056 L62.1966142,24.0737468 L62.4863675,21.48825 L63.8220022,20.5516228 L61.4508125,20.186333 L60.4389353,17.1612166 L62.5540819,15.3684397 L62.9691487,13.8453362 L63.9342737,10.7929364 L64.7385119,8.33736207 L64.7385119,8.33736207 Z" id="AR"></path>
            </g>
            <g id="mo" transform="translate(368.103448, 177.262931)" fill="#000000" sketch:type="MSShapeGroup">
                <path d="M53.1337866,4.61121983 L51.2330226,2.28247522 L50.3707554,0.557948276 L1.82543103,2.36870043 L0.100881466,2.45492565 L1.04937392,4.35190302 L0.876923491,6.07642241 L2.77389332,9.00811746 L5.10199677,12.1122629 L7.43010776,14.1816907 L9.06034591,14.3541412 L10.1893448,15.043958 L10.1893448,17.2858362 L8.80973384,18.4930043 L8.46481789,20.2175237 L10.0168944,22.8043179 L11.9138793,25.0461961 L13.8108491,26.4258147 L14.8455593,35.2208847 L15.0825183,62.4305259 L15.2549687,65.9657899 L15.5998696,70.0266272 L32.521306,69.3727759 L50.0258545,68.855417 L65.7190248,68.2512069 L74.5103157,68.0774892 L76.1467166,70.6617565 L75.630625,73.1566379 L73.3018804,74.9692759 L72.8701207,76.3552004 L76.9271713,76.7001164 L79.86518,76.18275 L81.1604666,72.0388481 L81.6518394,67.6210108 L83.2344052,65.6936272 L85.1926175,64.5720506 L85.231389,62.2712231 L85.9977834,60.8105162 L84.7198082,58.8917241 L83.7158739,59.6341616 L82.21282,57.9541315 L81.2435086,54.3643685 L81.8477188,52.4648642 L80.3812414,49.8793448 L79.0003707,46.4277716 L75.3801261,45.8248211 L70.1234881,41.6016261 L68.8269343,38.4987478 L69.4298922,36.0844116 L70.9832209,31.5150485 L71.329389,29.3549828 L69.8591325,28.577055 L64.6880787,27.9753642 L63.9126703,26.6838642 L63.8283384,23.4928599 L59.6894828,20.9048136 L54.4277834,15.0426907 L52.703264,9.52420905 L52.5295539,6.33700647 L53.133764,4.61121983 L53.1337866,4.61121983 Z" id="MO"></path>
            </g>
            <g id="ga" transform="translate(506.896552, 258.728448)" fill="#000000" sketch:type="MSShapeGroup">
                <path d="M0.220477371,4.18778017 L0.220477371,5.83400216 L0.342419181,7.41926078 L0.830186422,9.98004634 L3.39097953,15.9552177 L5.22011422,23.3937058 L6.31759052,28.0275172 L7.53701616,31.6857791 L8.6345,36.9292996 L10.2197511,41.6850528 L12.1708276,44.2458459 L12.536653,46.8066315 L13.9999623,47.4163405 L14.1219041,49.0015991 L12.7805366,52.659861 L12.4147112,55.0987123 L12.2927694,56.5620216 L13.512195,59.8544655 L13.7560787,63.8785603 L13.1463621,65.707695 L13.6341369,66.3174116 L14.7316207,66.9271207 L14.886028,69.3545593 L16.5704106,71.8811444 L18.2679407,73.5120011 L24.2431196,73.6339429 L32.404569,73.1461756 L48.6315873,72.1706412 L52.7393502,71.6619569 L56.1920172,71.6828513 L56.3139591,73.8778114 L58.2650356,74.4875205 L58.5089192,71.1950765 L57.2894935,67.7806907 L58.1430938,66.5612726 L62.533014,67.1709817 L66.2875259,67.4106864 L65.7026185,62.659444 L67.4098039,55.0990291 L68.5072877,51.9285269 L68.1414547,49.977458 L70.6566347,45.2673179 L70.2717101,44.2477317 L68.8284052,44.7792037 L66.8773362,43.8036541 L66.3895614,42.218403 L65.4140269,39.5356756 L63.7068265,37.9504246 L61.7557575,37.4626573 L60.5363319,33.8043879 L58.3299666,29.0258319 L55.159472,27.5625226 L53.5742134,26.0992134 L52.5986713,24.1481369 L51.0134278,22.6848276 L49.3062349,21.7092856 L47.599042,19.5143254 L45.2821401,17.8071401 L41.8677468,16.4657651 L41.5019213,15.3682888 L39.6727866,13.1733287 L39.3069612,12.0758448 L36.7461681,8.32656034 L34.0910938,8.40138793 L31.2587263,6.62412716 L30.188903,5.64859267 L29.9450194,4.30722522 L30.6018728,2.84392349 L32.2814504,2.00653341 L31.8032629,0.424578664 L0.220477371,4.18778017 L0.220477371,4.18778017 Z" id="GA"></path>
            </g>
            <g id="sc" transform="translate(536.314655, 252.693966)" fill="#000000" sketch:type="MSShapeGroup">
                <path d="M40.6899741,49.9088534 L39.3495194,50.6401573 L37.3984429,49.6646153 L36.9106756,48.0793642 L35.9351412,45.3966369 L34.2279407,43.8113782 L32.2768642,43.323611 L31.0574461,39.6653491 L28.9844203,35.1534795 L25.8139256,33.6901627 L24.228667,32.226861 L23.2531325,30.2757845 L21.6678815,28.8124677 L19.9606886,27.8369332 L18.2534957,25.6419731 L15.9365938,23.9347877 L12.5222004,22.5934127 L12.156375,21.4959364 L10.3272478,19.3009763 L9.96141487,18.2034849 L7.40062177,14.3013394 L4.83983621,14.4232812 L1.79127586,12.594139 L0.815741379,11.6186045 L0.571857759,10.2772371 L1.18156681,8.81393534 L2.8887597,8.0822694 L2.50344289,6.35559267 L6.85438039,4.59309375 L13.7302963,1.13156358 L19.5948556,0.521846983 L31.7501142,0.203165948 L33.7401735,1.61933082 L35.006736,4.15247091 L38.2520431,3.69235668 L47.763542,2.5948653 L49.9585022,3.2045819 L59.4700086,8.93587716 L67.0946379,15.0621444 L63.0053933,19.1794267 L61.0543168,23.8132306 L60.6884914,28.5689763 L59.4690733,29.1786853 L58.6154731,31.2517037 L56.7863459,31.7394709 L55.2010948,34.4221983 L53.1280765,36.4952166 L51.4208912,39.0560022 L50.2014655,39.6657112 L47.5187381,42.2264968 L45.323778,42.3484386 L46.0554364,44.7872823 L42.2752252,48.933319 L40.6899741,49.9088534 L40.6899741,49.9088534 Z" id="SC"></path>
            </g>
            <g id="ky" transform="translate(450.323276, 195.366379)" fill="#000000" sketch:type="MSShapeGroup">
                <path d="M97.3018103,22.0791918 L95.5719353,23.8908039 L92.8728696,26.9035496 L89.1582306,31.0256067 L88.2411627,32.3198297 L88.1940183,33.9050733 L84.8902446,35.5374688 L80.6222662,38.0982619 L75.1671918,39.455153 L36.0427058,43.1504138 L24.1551067,44.4917737 L20.6692877,44.8785162 L17.7513513,44.8576218 L17.5801606,48.0410226 L11.410347,48.1500657 L6.16682651,48.637833 L0.141787716,48.5924235 L1.05282866,47.5966735 L2.93825754,46.4343944 L3.11071552,44.0200506 L3.80052478,42.6404321 L2.58848384,40.7253136 L3.1933125,39.2869871 L4.90051293,37.9456272 L6.48575647,37.4578524 L8.55877478,38.4333944 L11.2415097,39.4089289 L12.0951099,39.1650453 L12.2170517,37.4578524 L11.2415097,35.6287177 L11.4853933,33.9215248 L12.9487026,32.8240485 L14.8997866,32.3362737 L16.1192047,31.8485065 L15.5094957,30.507139 L15.0217284,29.0438297 L16.1581875,28.2926875 C16.1604504,28.2647026 17.1040625,25.6357877 17.0922425,25.5335636 L19.3953179,24.41818 L23.4080905,23.6865291 L26.7979914,23.3207037 L27.8483233,24.5482909 L29.0011131,25.2051444 L30.2010474,22.8605894 L32.6050948,21.8930959 L34.268417,23.0125151 L34.5781067,23.7661013 L35.463305,23.5669558 L35.3413556,21.3395302 L37.7030032,20.0200981 L39.3233297,19.210361 L40.4769418,20.4631272 L42.9798567,20.4297866 L43.4228858,19.2445765 L43.1456692,17.5373912 L45.1072759,14.5212812 L48.7102769,11.9280377 L49.2427823,8.28029849 L51.4491552,7.93640086 L54.3090927,6.69504741 L56.1521142,5.40650431 L56.0025119,4.22606142 L55.14075,3.12858513 L55.5675539,0.869493534 L58.7242295,0.780862069 L60.4590754,0.218297414 L62.9840463,1.29628233 L64.5334828,4.58872629 L68.4048222,4.59687284 L69.9519203,6.26253341 L71.1704709,6.15112177 L73.1329526,5.18698491 L77.0833211,5.61948384 L79.0256099,5.78355388 L80.298569,4.23251078 L82.2733157,3.15695474 L83.6927619,2.6235819 L84.1805291,4.76328125 L85.7219095,5.56159806 L87.7153707,7.13244181 L87.8039795,11.4118254 L88.4136886,12.5979106 L90.3671412,13.7718287 L90.9491972,15.5026013 L94.0870453,18.0951207 L95.4488093,20.8281681 L97.3018103,22.0792069 L97.3018103,22.0791918 Z" id="KY"></path>
            </g>
            <g id="al" transform="translate(472.952586, 262.500000)" fill="#000000" sketch:type="MSShapeGroup">
                <path d="M3.24841487,79.5161681 L2.12403987,68.7133125 L0.0510140086,54.5680022 L0.172955819,43.9590119 L0.782664871,20.5460862 L0.66072306,7.9860194 L0.785252155,3.14405603 L34.3403556,0.413867457 L34.2288685,2.06008944 L34.3508103,3.64534806 L34.8385851,6.20613362 L37.3993782,12.181305 L39.2285054,19.6197931 L40.3259892,24.2536045 L41.5454073,27.9118739 L42.6428987,33.1553944 L44.2281422,37.9111401 L46.1792187,40.4719407 L46.5450442,43.0327188 L48.008361,43.6424353 L48.1303028,45.2276864 L46.7889278,48.8859558 L46.4231024,51.3248071 L46.3011606,52.7881088 L47.5205937,56.0805603 L47.7644774,60.1046476 L47.1547532,61.9337899 L47.6425356,62.5434989 L48.7400119,63.153208 L48.9875312,65.3322748 L44.7651584,65.0655884 L39.6435797,65.5533631 L20.3766832,67.7483157 L12.5231358,68.8094569 L12.3561466,70.9799095 L13.697514,72.3212769 L15.6485905,73.7845787 L16.0867392,79.7703631 L11.906306,81.7111282 L9.83329526,81.4672446 L11.906306,80.0039353 L11.906306,79.2722845 L9.58941164,74.7604224 L7.88221875,74.2726552 L6.78473491,77.5650916 L5.80920043,79.6381099 L5.32143319,79.5161681 L3.24841487,79.5161681 L3.24841487,79.5161681 Z" id="AL"></path>
            </g>
            <g id="la" transform="translate(392.241379, 300.215517)" fill="#000000" sketch:type="MSShapeGroup">
                <path d="M66.3544634,40.8543912 L63.8768481,38.466139 L64.6386336,34.3172586 L64.1397705,33.6435991 L57.153597,34.4028578 L38.2744763,34.7490259 L37.7583847,32.942694 L38.4469267,26.564472 L40.9481293,22.0794558 L44.7433362,15.5237295 L44.3103093,13.7148782 L45.2581681,13.201306 L45.6043437,11.7285226 L43.8798093,10.1777134 L43.7954849,8.71250323 L42.4145991,5.43464009 L42.3036778,0.653368534 L0.459224138,1.35032866 L0.480797414,8.57177155 L0.99815625,15.6423222 L1.51551509,18.5740097 L3.41249246,21.6781552 L4.10230172,25.4721175 L7.37889763,29.6109655 L7.55134806,32.0253017 L8.0687069,32.5426606 L7.55134806,38.9234019 L5.30946983,42.7173491 L6.51663793,44.2694256 L5.99927155,46.1663955 L5.48192026,51.6848772 L4.44720259,54.0992058 L4.53957543,56.8271315 L8.07463578,55.6804666 L17.211861,55.8366164 L25.0161595,58.5193438 L29.893847,59.372944 L32.6985162,58.2754601 L35.1373599,59.1290603 L37.5762037,59.8607112 L38.1859127,58.2754601 L35.747069,57.4218675 L33.7959925,57.7876929 L31.7229741,56.5682748 C31.7229741,56.5682748 31.8449235,55.5927328 32.3326907,55.4707909 C32.820458,55.3488491 34.6495927,54.7391401 34.6495927,54.7391401 L35.9909526,55.8366164 L37.33232,55.1049655 L39.7711638,55.5927328 L40.8686401,57.4218675 L41.1125237,59.1290603 L44.5269019,59.372944 L45.8682694,60.7143039 L45.2585603,61.9337295 L44.2830183,62.5434386 L45.502444,63.7628567 L51.8434332,66.4455841 L54.5261606,65.4700496 L55.257819,63.6409149 L57.2088879,63.1531476 L58.5502554,62.0556713 L59.5257899,62.7873222 L60.1354989,64.9822823 L58.4283136,65.5919914 L58.9160808,66.0797586 L61.4768664,65.1042241 L63.1840593,62.5434386 L63.7937683,62.1776131 L62.2085172,61.9337295 L62.8182263,60.7143039 L62.6962845,59.6168276 L64.2815356,59.2510022 L65.1351282,58.2754601 L65.6228955,58.8851692 C65.6228955,58.8851692 65.5009537,61.2020711 66.1106703,61.2020711 C66.7203793,61.2020711 69.2811649,61.6898459 69.2811649,61.6898459 L72.3297177,63.1531476 L73.0613685,64.2506315 L75.2563287,64.2506315 L76.1099289,64.9822823 L77.8171142,62.6653804 L77.8171142,61.5678966 L76.8415797,61.5678966 L74.2807942,59.4948858 L69.8908739,58.8851692 L67.4520302,57.1779838 L68.3056304,55.1049655 L70.0128157,55.3488491 L70.1347575,54.8610819 L68.7933976,54.129431 L68.7933976,53.7635981 L71.2322414,53.7635981 L72.5736013,51.4467037 L71.5980668,49.9833944 L71.3541832,47.9103761 L70.2566994,48.0323179 L68.7933976,49.617569 L68.3056304,51.5686455 L65.9887284,51.0808707 L65.25707,49.7395108 L66.5984375,48.2762015 L68.034139,45.6771498 L67.2337403,43.8575496 L66.354486,40.8543912 L66.3544634,40.8543912 Z" id="LA"></path>
            </g>
            <g id="ms" transform="translate(429.956897, 265.517241)" fill="#000000" sketch:type="MSShapeGroup">
                <path d="M46.4344547,75.6909547 L46.2426638,76.6384817 L42.3405108,76.6384817 L41.2430345,76.0287726 L39.6577834,75.784889 L34.5362123,77.2481907 L33.1948524,76.6384817 L31.2437759,79.8089763 L30.4121185,80.3958448 L29.5644019,78.5191358 L28.7021347,75.5874407 L26.1153556,73.1731121 L26.9776078,68.9908006 L26.4602565,68.3009914 L25.0806379,68.4734418 L19.108069,69.1322338 L0.592390086,69.4138707 L0.0117672414,67.7352586 L0.670559267,61.4165517 L3.02162392,57.1374925 L6.9644569,50.2393998 L6.6282306,48.4044644 L7.5612069,47.9094483 L7.88998815,46.4615722 L6.14188901,44.8933761 L6.0550528,43.2780356 L4.67035022,40.1694547 L4.58813039,35.6716756 L5.5895,33.8002543 L5.4210625,31.2237188 L4.08631789,28.8984892 L5.23771228,27.7804429 L4.05298491,25.895014 L4.39789332,24.6487349 L5.58774246,19.7258265 L7.46292026,18.1897866 L6.97890194,16.4043567 L9.73814655,12.4046034 L11.8742478,11.3814418 L11.7075679,10.1178513 L11.4902284,8.84978017 L13.6596703,4.65002909 L15.4290711,3.72108836 L15.5434472,3.04748168 L43.7120205,0.119875 L43.8514623,4.85945582 L43.9734041,17.4195226 L43.363695,40.8324483 L43.2417532,51.4414386 L45.3147791,65.5867489 L46.4344547,75.6909547 L46.4344547,75.6909547 Z" id="MS"></path>
            </g>
            <g id="ia" transform="translate(356.788793, 129.741379)" fill="#000000" sketch:type="MSShapeGroup">
                <path d="M72.5582737,15.5269504 L72.7576983,17.6286099 L74.4350733,18.0640431 L75.1546401,18.9883222 L75.5318028,20.3878394 L78.3927812,22.9213039 L78.9101401,24.7252371 L78.4014784,27.3083502 L77.2079256,29.7462662 L76.6049752,31.8144267 L74.9660474,33.0228621 L73.6720205,33.4546293 L69.463708,34.8577974 L68.4141153,37.7609041 L68.963736,38.7956218 L70.3520517,40.0648168 L70.1386347,43.1094321 L68.8086724,44.2694558 L68.2267899,45.5088933 L68.3227532,47.6031002 L66.8998901,47.9480011 L65.6737963,48.7814461 L65.4635022,49.8017489 L65.6737963,51.397055 L64.5038459,52.2389181 L62.6402996,49.8754526 L61.68793,48.0274903 L12.1027209,49.9244677 L11.4102414,50.0492608 L9.86209483,46.6428254 L9.6896444,41.641695 L8.48247629,38.5375496 L7.965125,34.5711519 L6.24059806,31.8119073 L5.55079634,28.1904106 L3.48136099,22.4994784 L2.61910129,18.4468405 L1.58438362,16.8085463 L0.377215517,14.7391261 L1.85112284,11.085375 L2.88584052,6.77406142 L0.816412716,5.22198491 L0.47150431,3.15255711 L1.16132112,1.25557974 L2.45471444,1.25557974 L64.8014817,0.297997845 L65.4307726,3.45336853 L67.1296153,4.63082435 L67.3232543,5.70427586 L65.7923513,8.26086746 L65.9359795,10.6788244 L67.8329644,13.5438459 L69.7389483,14.5196369 L72.061681,14.8990927 L72.5582737,15.5269504 L72.5582737,15.5269504 Z" id="IA"></path>
            </g>
            <g id="mn" transform="translate(351.508621, 34.698276)" fill="#000000" sketch:type="MSShapeGroup">
                <path d="M6.96817565,57.1951218 L6.62326724,50.8143804 L5.24364871,45.2959062 L3.86403017,35.1212214 L3.51912177,27.7057639 L2.13950323,25.118975 L0.932335129,21.325024 L0.932335129,13.5646641 L1.44968642,10.6329713 L0.0761400862,6.52072252 L22.8053362,6.54732705 L23.0492198,0.328276616 L23.5369871,0.206334052 L25.24418,0.572160991 L26.7074817,1.18187155 L27.3171907,5.32790517 L28.4146746,9.96170754 L29.6340927,11.1811294 L33.2923621,11.1811294 L33.5362457,12.2786087 L38.2919914,12.5224931 L38.2919914,14.1077412 L41.9502532,14.1077412 L42.1941369,13.1322037 L43.0477295,12.2786087 L44.7549224,11.79084 L45.7304569,12.5224931 L47.925417,12.5224931 L50.852028,14.4735673 L54.8761228,16.3026998 L56.7052575,16.6685267 L57.071083,15.9368736 L58.1685593,15.5710467 L58.5343847,17.766006 L60.4854612,18.7415435 L60.8512866,18.3757166 L61.8268287,18.4976592 L61.8268287,20.0829072 L63.7778976,20.8145603 L66.0947996,20.8145603 L67.3142252,20.204849 L69.753069,17.766006 L71.7041379,17.4001798 L72.3138545,18.7415435 L72.67968,19.7170803 L73.4113308,19.7170803 L74.1429817,19.1073697 L80.8498039,18.8634853 L82.1911638,21.1803865 L82.6789386,21.1803865 L83.217222,20.3625037 L86.566292,20.0829072 L86.1045787,21.8023267 L83.1335614,23.1880891 L76.1593739,26.25144 L72.5577381,27.7652631 L70.2408362,29.7163381 L68.4117015,32.3990655 L66.7045162,35.3256773 L65.3631487,35.9353893 L61.9487705,39.715593 L60.9732284,39.8375348 L57.7087392,41.9172589 L55.8509634,44.3349066 L55.6785129,46.7422051 L55.7497198,52.8093872 L54.7117586,54.0832288 L50.8787004,56.919413 L49.196528,61.4320068 L51.3627188,63.1169173 L51.8755668,65.5510617 L50.4761401,67.9942202 L50.6049688,70.8213904 L50.8832037,75.8982008 L53.167444,78.1626329 L55.6785431,78.1626329 L57.1050269,80.5255855 L59.6539698,80.9052072 L62.5649741,85.1832557 L67.9109903,88.2885628 L69.5275905,90.4572956 L70.0338459,95.3146846 L8.77517134,96.1782115 L8.52027478,69.2667945 L8.17537392,67.0249163 L5.07122845,64.4381296 L4.20896121,63.0585111 L4.20896121,61.8513355 L5.76103017,60.6441749 L6.79574784,59.6094572 L6.96820582,57.195121 L6.96817565,57.1951218 Z" id="MN"></path>
            </g>
            <g id="ok" transform="translate(273.060345, 235.344828)" fill="#000000" sketch:type="MSShapeGroup">
                <path d="M13.8364127,1.37394612 L1.25136315,0.413475216 L0.587404095,8.67500647 L16.0246519,9.54765302 L40.2044849,10.530972 L38.443472,28.9502123 L38.0985636,42.4015043 L38.2710216,43.6086724 L41.5476175,46.3679095 L43.0996864,47.2301692 L43.6170453,47.0577188 L44.1344041,45.5056422 L45.1691218,46.8852683 L46.7211907,46.8852683 L46.7211907,45.8505506 L48.7906185,46.8852683 L48.4457177,49.8169558 L51.5498631,49.9894063 L53.446833,50.8516735 L56.5509784,51.3690323 L58.4479558,52.7486509 L60.1724828,51.1965819 L62.7592694,51.7139332 L64.6562468,54.3007198 L65.3460485,54.3007198 L65.3460485,56.0252468 L67.0705754,56.5425981 L68.7950948,54.8180787 L70.1747209,55.33543 L72.0716907,55.33543 L72.7615075,57.2324149 L77.5144698,58.8006034 L78.5491875,58.2832522 L79.928806,55.1791067 L80.7910657,55.1791067 L81.653333,56.7311756 L84.7574784,57.2485345 L87.516708,58.2832522 L89.7585937,58.9730614 L91.1382198,58.2832522 L91.6555711,56.3862748 L94.932167,56.3862748 L96.484236,57.0760841 L98.5536638,55.5240075 L99.415931,55.5240075 L99.9332899,56.7311756 L103.037428,56.7311756 L104.244596,55.1791067 L105.624222,55.5240075 L107.176291,57.4209925 L109.59062,58.8006034 L112.004963,59.4904203 L113.46914,60.3344407 L113.175638,32.2612651 L112.140913,23.9834784 L112.019876,17.2909806 L110.933752,12.3595032 L110.346748,6.94382651 L110.295379,4.06521228 L101.140435,4.30564116 L66.1328621,3.9607403 L32.1595463,2.40865625 L13.8364429,1.37394612 L13.8364127,1.37394612 Z" id="OK"></path>
            </g>
            <g id="tx" transform="translate(216.487069, 243.642241)" fill="#000000" sketch:type="MSShapeGroup">
                <path d="M56.169139,0.432657328 L73.2850366,1.2517931 L96.7385744,2.11406034 L94.9775539,19.8070129 L94.7537047,33.5004009 L94.8050733,35.0707166 L98.0816692,37.9509978 L99.5802198,39.0426056 L100.473482,38.6204256 L100.755119,37.2493006 L101.615274,38.6097899 L103.208106,38.6429041 L103.205843,37.5513491 L104.465496,38.2809709 L105.324429,38.5893858 L105.053428,41.5822252 L108.137192,41.6527532 L110.343791,42.5557909 L113.326892,42.9520905 L115.123192,44.5202866 L116.725422,42.9542101 L119.535183,43.4180431 L121.210439,45.8506487 L122.021292,46.0927522 L121.900248,47.5751756 L123.569997,48.1728082 L125.327653,46.6228513 L126.936612,47.0866918 L128.618256,47.1134698 L129.322081,48.9505474 L134.095425,50.5454989 L135.297079,49.9669957 L136.420601,46.8157058 L136.67761,46.8157058 L137.361385,46.8772575 L138.28847,48.4376466 L141.252819,48.9394741 L143.769953,49.7864741 L146.353941,50.6886067 L147.742309,49.9531541 L148.280706,48.0561843 L151.639816,48.0895248 L153.004167,48.7916218 L155.11567,47.2026595 L155.948157,47.236 L156.590106,48.4467209 L159.648623,48.4467209 L160.794322,46.9165119 L162.202899,47.2236972 L163.670809,49.0365162 L166.326412,50.5784397 L168.482804,51.1892877 L169.624543,51.7926153 L171.470114,53.2992144 L173.765511,52.2976487 L175.795428,53.1567177 L176.220716,57.7624914 L176.190694,65.0809386 L176.708045,72.2725409 L177.237707,74.9919127 L179.255736,78.3258588 L179.933242,82.0602457 L183.113377,86.2376315 L183.261237,88.6098922 L183.824232,89.2026595 L183.273532,95.523833 L181.107078,99.3002877 L182.263413,100.92422 L181.788137,102.687858 L181.283073,108.273013 L180.148349,110.790901 L180.37078,113.43276 L176.097703,114.628477 L168.65923,118.042863 L167.927579,119.506165 L165.976502,120.969474 L164.391259,122.06695 L163.415717,122.676659 L159.147746,126.700754 L157.074727,128.286005 L153.050633,130.724842 L148.782662,132.553976 L144.026916,135.114762 L142.685556,136.212246 L138.295636,138.894973 L135.73485,139.38274 L132.808239,143.528769 L129.759686,143.772661 L129.028028,145.235962 L130.735221,146.699272 L129.637737,150.845301 L128.662203,154.259686 L127.80861,157.186297 L127.198901,160.600676 L127.80861,162.42981 L129.14997,167.673323 L129.881628,172.30712 L131.222988,174.380138 L130.491337,175.477622 L128.174435,176.940923 L123.906457,174.014313 L119.760428,173.16072 L118.784886,173.526545 L116.346042,173.038778 L113.175547,170.721876 L109.273402,169.868283 L103.542114,167.307498 L101.956871,164.380879 L100.981329,159.503199 L98.5424925,158.03989 L98.0547177,156.332697 L98.5424925,155.84493 L98.7863761,153.284144 L97.8108341,152.796377 L97.3230668,152.064726 L98.2986013,148.772282 L97.0791832,147.065097 L94.6403394,146.089555 L92.0795539,142.797119 L89.3968265,137.797489 L86.2263319,135.846413 L86.3482737,134.383111 L82.3241789,125.115503 L81.7144698,121.945009 L80.3731099,120.481707 L80.2511681,119.384223 L75.739306,115.360136 L73.7882295,113.043234 L73.7882295,112.189634 L71.837153,110.60439 L66.7155819,109.75079 L61.1062435,109.263023 L58.7893416,107.555837 L55.3749634,108.897197 L52.692236,109.994681 L50.9850431,112.433517 L50.2533922,115.238194 L46.9609558,119.87199 L45.1318211,121.701125 L43.1807446,120.969474 L41.8393847,120.115874 L40.3760754,119.628107 L37.4494644,117.920921 L37.4494644,117.433147 L36.1081045,115.969845 L32.2059515,114.384594 L26.5966131,108.531372 L24.8894203,104.995052 L24.8894203,98.8979386 L22.4505765,94.0202511 L22.0847511,91.9472403 L20.865333,91.2155819 L20.0117328,89.6303384 L16.2315291,88.0450873 L15.2559946,86.8256692 L9.89053233,80.8504978 L8.91499784,78.4116541 L5.37867026,76.7044612 L4.28118642,73.4119946 L2.33009483,71.2170496 L0.866800647,70.8512392 L0.377079741,67.322847 L6.41297306,67.8402209 L28.3143664,69.9096336 L50.2158276,71.1168017 L51.9006024,56.4365496 L54.8322672,14.5308233 L56.039458,0.389525862 L57.0741756,0.411099138 L56.169139,0.432657328 Z M131.773039,173.64808 L131.346242,168.28261 L129.273217,162.856162 L128.846413,157.551663 L130.004867,151.332593 L132.504697,146.150036 L135.126454,142.064955 L137.504342,139.382212 L137.992109,139.565133 L134.394803,144.564777 L131.102359,149.503458 L129.578071,154.503095 L129.334188,158.405263 L130.004867,163.039082 L131.955952,168.46553 L132.321777,172.367683 L132.443719,173.465175 L131.773039,173.64808 L131.773039,173.64808 Z" id="TX"></path>
            </g>
            <g id="nm" transform="translate(182.543103, 227.047414)" fill="#000000" sketch:type="MSShapeGroup">
                <path d="M34.8133459,87.5099192 L34.2284461,83.9283782 L40.7485388,84.3246929 L63.5074095,86.5468157 L84.0760647,87.8215172 L85.7470657,73.7102791 L88.6567123,31.5624569 L89.9674623,16.9369601 L91.1530119,17.0339343 L91.7756196,8.61327371 L13.3239871,0.590466595 L0.125554957,91.4356897 L11.7876983,92.9361261 L12.7632328,85.3757112 L34.8133459,87.5099192 L34.8133459,87.5099192 Z" id="NM"></path>
            </g>
            <g id="ks" transform="translate(285.883621, 187.823276)" fill="#000000" sketch:type="MSShapeGroup">
                <path d="M97.2159623,51.5799526 L87.6978782,51.7341563 L52.9324009,51.3892629 L19.3222328,49.8371713 L0.743765086,48.888694 L3.68089116,0.164039871 L20.3386735,0.673327586 L50.729181,1.30800431 L84.1460647,2.05294612 L87.9897511,2.05294612 L89.6374666,3.68406681 L91.1594084,3.66792457 L92.3967037,4.43164116 L92.3495593,6.70153448 L90.9699407,8.00299892 L90.7193211,9.68674784 L92.1095754,12.2531606 L94.3365711,14.6632274 L96.0921153,15.8810313 L97.0732996,24.3600981 L97.2159623,51.5799375 L97.2159623,51.5799526 Z" id="KS"></path>
            </g>
            <g id="ne" transform="translate(265.517241, 135.775862)" fill="#000000" sketch:type="MSShapeGroup">
                <path d="M101.151411,40.506903 L103.588293,45.8020938 L103.491266,47.5389084 L106.100592,51.6829989 L108.15178,54.0608416 L104.342905,54.0608416 L71.5435603,53.3527856 L40.7776099,52.6812231 L23.9925302,52.0899418 L24.8017317,36.0021239 L0.423748922,33.7993491 L3.70034483,0.602256466 L15.4271024,1.37829849 L30.6029138,2.24055065 L44.0542058,3.10281789 L61.9892619,3.96507759 L70.0945226,3.62017672 L71.6465916,5.34469612 L75.2680959,7.5865819 L76.1303556,8.27639116 L79.4069515,7.24167349 L82.3386466,6.89677263 L84.4080744,6.72431466 L85.7876929,7.75903233 L88.8482543,8.96620043 L91.0901325,10.1733685 L91.4350409,11.3805366 L92.1248502,12.9326056 L93.5044688,12.9326056 L94.1063933,12.9674547 L94.7809203,16.499 L96.9837026,22.8864397 L97.4155679,25.7201649 L99.3190625,28.5671207 L99.7487101,32.4247694 L100.961068,35.6233244 L101.151411,40.5069256 L101.151411,40.506903 Z" id="NE"></path>
            </g>
            <g id="sd" transform="translate(268.534483, 88.254310)" fill="#000000" sketch:type="MSShapeGroup">
                <path d="M90.85432,60.3634213 L90.8185657,59.9252651 L88.6343017,56.2702996 L90.0374925,52.7159063 L91.1634741,48.2756282 L89.0650808,46.7068815 L88.7745506,44.6374612 L89.3722662,42.7106886 L91.7773922,42.7221541 L91.6845517,38.9459709 L91.4331401,16.185222 L90.96718,13.3432974 L87.8953869,10.8307425 L87.1541789,9.56579418 L87.1070345,8.35224461 L88.6323405,7.19860237 L89.7881099,5.94217026 L89.9728858,3.93812608 L46.0289601,2.73096552 L4.69334914,0.12928125 L0.676442888,48.1722047 L11.6820345,48.8539504 L26.7304127,49.7633545 L40.1141789,50.4637996 L58.0492349,51.4471034 L67.0879095,51.1267931 L68.5711099,52.8203556 L72.4894806,55.2743912 L73.0656907,55.819569 L76.4913459,54.7236994 L81.4249429,54.2598664 L82.688639,55.2678287 L85.8601444,56.471806 L88.0816336,57.7057295 L88.3825884,58.8249828 L89.1666864,60.5153017 L90.8543578,60.3634138 L90.85432,60.3634213 Z" id="SD"></path>
            </g>
            <g id="nd" transform="translate(273.060345, 37.715517)" fill="#000000" sketch:type="MSShapeGroup">
                <path d="M85.4673448,54.2488384 L85.0035119,47.8872338 L83.7385711,42.7459149 L82.3118006,32.921611 L81.9668998,24.6339836 L80.6548071,22.3128636 L79.329778,18.3946769 L79.3533125,10.516456 L79.8235194,7.63190765 L78.4400388,3.50751897 L56.8348933,3.08206756 L42.8115474,2.59429881 L22.8130302,1.61876131 L5.50436853,0.00916185345 L0.229295259,50.6813427 L41.6652522,53.2034925 L85.4673071,54.2488384 L85.4673448,54.2488384 Z" id="ND"></path>
            </g>
            <g id="wy" transform="translate(180.280172, 92.025862)" fill="#000000" sketch:type="MSShapeGroup">
                <path d="M91.5556853,10.7684364 L11.0386379,0.617636853 L0.415323276,67.342444 L85.8519903,77.5901196 L91.5556853,10.7684364 L91.5556853,10.7684364 Z" id="WY"></path>
            </g>
            <g id="mt" transform="translate(144.827586, 17.349138)" fill="#000000" sketch:type="MSShapeGroup">
                <path d="M133.670974,20.343096 L110.533017,18.2251185 L88.4614817,15.5423912 L66.3899537,12.4938369 L42.0015162,8.4697458 L28.1001121,5.90896024 L3.41632435,0.679525754 L0.0377532328,16.78219 L2.62453987,22.4731153 L1.5898222,25.9221631 L2.96944073,29.3712102 L5.38378448,30.4059272 L8.86931681,38.529437 L10.9022586,40.9255211 L11.2471595,41.7877869 L13.8339461,42.6500526 L14.1788545,44.2021163 L8.83283082,57.4809601 L8.83283082,59.3779375 L10.7298082,61.7922662 L11.4196099,61.7922662 L15.0411067,59.5503879 L15.5584731,58.6881207 L16.7656412,59.2054795 L16.5931832,63.1718847 L18.6626185,72.6567716 L20.9044968,74.5537414 L21.5942985,75.0711002 L22.9739246,76.7956196 L22.6290162,79.3824138 L23.146375,81.9691929 L24.0086422,82.6590097 L25.7331616,80.9344828 L27.8025894,80.9344828 L30.2169256,82.1416509 L32.113903,81.4518416 L35.2180485,81.4518416 L37.977278,82.6590097 L40.0467134,82.3141013 L40.3916142,80.0722155 L42.6334925,79.5548642 L43.6682101,80.5895819 L44.0131185,83.0039106 L45.088667,83.6334881 L46.5120129,75.3098696 L127.031376,85.4394429 L133.670974,20.343096 L133.670974,20.343096 Z" id="MT"></path>
            </g>
            <g id="co" transform="translate(195.366379, 161.422414)" fill="#000000" sketch:type="MSShapeGroup">
                <path d="M91.2960065,75.4043093 L94.9945711,10.2884989 L9.46440733,0.751029095 L0.251396552,67.0844472 L91.2960065,75.4043093 L91.2960065,75.4043093 Z" id="CO"></path>
            </g>
            <g id="id" transform="translate(111.637931, 15.840517)" fill="#000000" sketch:type="MSShapeGroup">
                <path d="M0.361171336,112.00298 L6.97712931,85.4356261 L8.01184698,82.2452554 L9.90881681,77.7614989 L8.9603319,76.036972 L7.06334698,76.1231972 L6.45977047,75.3471627 L6.80467888,74.484903 L7.06334698,72.156792 L10.4261756,68.0179289 L11.8057942,67.673028 L12.6680539,66.8107683 L13.0991875,64.3964321 L13.7889892,63.8790808 L16.7206843,59.481542 L19.6523793,56.2049461 L19.8248297,53.3594853 L17.2380431,51.3762805 L16.0797619,48.0565735 L26.3571724,0.277280711 L36.5536304,2.18426099 L33.22857,18.3136889 L35.9141789,23.9599673 L34.7215313,27.4756872 L36.2074095,30.9766172 L38.5746013,31.9234208 L41.4676379,39.132054 L44.1172963,42.4790452 L44.4999203,43.3413109 L47.0200334,44.2035766 L47.2982608,45.785422 L42.0399558,58.8923879 L41.9153588,60.8278955 L43.9000399,63.3334881 L44.5827511,63.2966024 L48.2873879,61.014361 L48.7983728,60.1884138 L49.9768394,60.6853987 L49.7668093,64.7237651 L51.8330539,74.2150334 L54.7883136,76.6121638 L56.056445,78.2455851 L55.5158987,81.326083 L56.3201595,83.4437414 L57.120958,84.2669052 L58.9911121,82.4932047 L61.1395086,82.5300905 L63.3415291,83.5372457 L65.4385269,83.0228588 L68.3005765,82.9018071 L71.3019019,84.1089752 L73.3713373,83.8851261 L73.7460334,81.5940517 L75.9581164,81.0171325 L76.9086756,82.1605991 L77.2412737,84.3820129 L78.3156681,85.2971498 L71.9900216,125.734717 C71.9900216,125.734717 5.6363653,113.137274 0.361171336,112.002987 L0.361171336,112.00298 Z" id="ID"></path>
            </g>
            <g id="ut" transform="translate(132.004310, 134.267241)" fill="#000000" sketch:type="MSShapeGroup">
                <path d="M63.7379871,94.3680636 L0.565227371,85.4127026 L16.0946746,0.52159806 L51.3815463,7.11814763 L50.2615463,15.1367834 L48.5178675,25.0730571 L54.4072888,25.7733362 L66.7828966,27.134708 L72.9765162,27.7801261 L63.7379871,94.3680636 L63.7379871,94.3680636 Z" id="UT"></path>
            </g>
            <g id="az" transform="translate(106.357759, 219.504310)" fill="#000000" sketch:type="MSShapeGroup">
                <path d="M2.95025862,63.8365981 L0.968677802,65.4646487 L0.724794181,66.5621325 L1.09061961,67.2937834 L15.3578491,75.3419655 L24.5035151,81.0732457 L35.60025,87.5361843 L48.282236,95.0965991 L57.5498437,96.9257338 L76.3707619,98.9660754 L89.386847,9.10729418 L26.224195,0.117989224 L23.8915733,12.4980776 L22.6799321,12.5096185 L21.3865388,14.4928211 L19.4895614,14.4065884 L18.5410765,12.3371606 L16.4716487,12.0784849 L15.7818319,11.2162252 L15.0920302,11.2162252 L14.4022134,11.6473588 L12.9363696,12.4233933 L12.8501519,17.6831843 L12.6776864,18.9765776 L12.2465679,28.4614569 L11.125625,30.0997511 L10.6944914,32.6003125 L12.7639192,36.308042 L13.7124041,40.7055808 L14.3159957,41.4816153 L15.0920302,41.9127489 L15.0057974,43.6372683 L13.7986369,44.6719784 L11.2118502,45.9653718 L9.74600647,47.4312231 L8.62506358,50.1904526 L8.19392996,53.8981821 L6.03827694,55.9676099 L4.48620797,56.4849688 L4.58856034,57.1109558 L4.24365194,58.4043491 L4.58856034,59.0079332 L7.34779741,59.4390517 L6.91666379,61.5084871 L5.79572091,63.1467813 L2.95025862,63.8365905 L2.95025862,63.8365981 Z" id="AZ"></path>
            </g>
            <g id="nv" transform="translate(63.362069, 118.426724)" fill="#000000" sketch:type="MSShapeGroup">
                <path d="M84.7789989,16.2746379 L66.9479246,113.446971 L65.565847,113.710338 L64.3794978,115.525345 L62.5895647,115.533416 L61.4792575,113.463988 L59.5041185,113.178542 L58.9226056,112.343045 L58.1397597,112.302313 L56.0440065,113.542617 L55.8099741,118.660975 L55.5368459,123.018754 L55.2739159,129.5004 L54.1823534,131.076275 L52.3426509,130.266123 L0.234978233,51.6660873 L14.5586649,0.686090517 L84.7789989,16.2746756 L84.7789989,16.2746379 Z" id="NV"></path>
            </g>
            <g id="or" transform="translate(26.400862, 39.978448)" fill="#000000" sketch:type="MSShapeGroup">
                <path d="M85.7815603,87.1466282 L92.4569806,60.8954892 L93.2496024,57.7051185 L95.025528,53.463458 L94.5612425,52.5862856 L92.6642575,52.5514364 L91.6975334,51.2912101 L92.0424343,50.186847 L92.4221616,47.7376918 L95.7849903,43.5988287 L97.1646088,42.7697284 L98.0268685,41.9074687 L99.1478039,39.2178772 L102.200543,34.9413901 L104.890135,32.0279418 L105.062585,29.42458 L102.59685,27.5624276 L101.251606,24.0604475 L91.6991929,21.3359012 L80.3173362,18.6628893 L68.6768039,18.7491115 L68.331903,17.7144022 L64.1930399,19.2664741 L60.8302187,18.8353413 L59.0194666,17.6281724 L58.0709817,18.145535 L54.5357101,17.9730755 L53.2423168,16.9383662 L49.2759116,15.3862942 L48.6723261,15.4725239 L45.3957302,14.3515765 L43.9298857,15.7311973 L39.2736697,15.4725239 L34.789911,12.3683792 L35.3072661,11.7647952 L35.4797172,5.90141034 L33.7551941,2.96972511 L30.6510501,2.53859224 L30.133695,0.641617134 L28.3580998,0.289682328 L23.9842124,1.8426444 L22.2770218,6.72033039 L19.8381788,14.2807445 L17.399335,19.1584312 L13.6191283,29.7673997 L8.74144159,40.0105366 L2.64433373,49.522028 L1.18102748,51.7169881 L0.571316918,58.1799192 L0.862552371,67.2921616 L85.7815603,87.1466131 L85.7815603,87.1466282 Z" id="OR"></path>
            </g>
            <g id="wa" transform="translate(49.784483, 0.000000)" fill="#000000" sketch:type="MSShapeGroup">
                <path d="M27.2104181,0.461467004 L30.5028545,1.55894654 L37.8193858,3.63196358 L44.2823168,5.09526907 L59.4031466,9.36324526 L76.7189364,13.6312207 L88.2018933,16.0504245 L77.9188631,64.0138595 L68.5314709,61.3546756 L56.8336185,58.6612755 L45.3460075,58.6863488 L45.0023664,57.6720284 L40.7788168,59.3158917 L37.3124364,58.7601581 L35.6929547,57.5652898 L34.7023869,58.0616079 L31.1302295,57.9558211 L29.849139,56.937779 L25.8791735,55.344447 L25.3247773,55.4552688 L22.0140171,54.3053619 L20.5858829,55.6762296 L15.8594452,55.4508922 L11.3896298,52.3388325 L11.9772052,51.6352398 L12.0686449,45.8440583 L10.3473095,42.9477321 L7.24316552,42.4898356 L6.73218815,40.5960519 L5.01574591,40.2513834 L2.33421185,41.1796196 L0.627021228,38.7513083 L0.870905603,36.5563489 L2.94392241,36.3124645 L4.16334429,33.263911 L2.21226929,32.4103153 L2.33421185,29.6056454 L5.62665054,29.1178774 L3.55363373,27.0448606 L2.45615366,21.6794051 L2.94392241,19.4844464 L2.94392241,13.5092804 L1.60255873,11.0704366 L3.30974935,3.99779127 L4.89499741,4.36361746 L6.72412985,6.55857683 L8.79714666,8.50965108 L11.2359897,9.97295733 L14.6503702,11.5582054 L16.9672728,12.0459741 L19.1622322,13.1434534 L21.72302,13.8751066 L23.4302099,13.7531648 L23.4302099,11.9240316 L24.4057474,11.0704366 L25.9909925,10.0948991 L26.2348836,10.9484948 L26.4787672,12.2898585 L24.7715736,12.6556847 L24.5276892,14.2409328 L25.8690506,15.3384128 L26.7226509,17.1675453 L27.2104181,18.6308508 L28.3078944,18.5089089 L28.4298362,17.5333714 L27.6981853,16.5578339 L27.3323599,14.1189909 L27.942069,12.7776273 L27.4543017,11.680148 L27.4543017,9.97295733 L28.7956692,7.29022996 L27.942069,5.33915496 L26.1129343,1.68089016 L26.3568254,1.07117938 L27.2104181,0.461468513 L27.2104181,0.461467004 Z M20.0771375,4.97146185 L21.6014207,4.84952004 L21.9672476,5.88603222 L23.1257016,4.6666028 L24.8938669,4.6666028 L25.5035782,5.82505679 L24.3451235,7.10545334 L24.8328998,7.7151722 L24.2841564,9.23945313 L23.2476442,9.54430463 C23.2476442,9.54430463 22.5769582,9.60528308 22.5769582,9.36139569 C22.5769582,9.11751131 23.6744458,7.41031315 23.6744458,7.41031315 L22.3940492,6.98351153 L22.1501649,8.08099838 L21.6014207,8.56876713 L20.4429644,6.86156897 L20.0771375,4.97146185 L20.0771375,4.97146185 Z" id="WA"></path>
            </g>
            <g id="ca" transform="translate(15.840517, 107.112069)" fill="#000000" sketch:type="MSShapeGroup">
                <path d="M93.3039881,175.903762 L96.2760312,175.535191 L97.3969666,174.017941 L97.8077187,171.799446 L95.1287705,171.354312 L94.7409267,170.850267 L95.1011099,169.317275 L94.9809634,168.872481 L96.4311778,168.405117 L98.7263782,166.268398 L99.165055,162.500542 L100.205928,159.934295 L101.671772,158.300263 L104.326092,157.101158 L105.574015,155.890619 L105.625836,154.299899 L104.876557,153.862391 L104.104784,153.05322 L103.23339,148.641673 L101.207916,144.998287 L101.634712,142.354429 L99.8095981,141.57801 L47.7159284,62.9951649 L61.9739871,12.0026616 L11.3749525,0.161528017 L10.2382852,3.73185991 L10.1163427,9.34119828 L6.21419343,18.2429731 L3.897293,20.1940496 L3.65340862,21.0476422 L2.31204418,21.6573588 L1.21456487,24.8278534 L0.60485431,27.2666972 L2.67787112,30.4371918 L3.897293,33.6076864 L4.75088793,36.2904138 L4.50700356,41.1681013 L3.16563987,43.4850032 L2.67787112,47.8749235 L1.946218,50.6795927 L3.28758168,53.6062037 L5.36059849,57.0205819 L7.06778912,60.6788513 L8.04332586,63.7274041 L7.79944224,66.1662478 L7.55555787,66.5320733 L7.55555787,68.1173168 L11.8235333,72.8730625 L11.4577071,74.7021972 L10.9699384,76.4093901 L10.4821696,77.8726918 L10.6041114,84.0917468 L12.1893595,86.8964159 L13.6526657,88.8474849 L15.7256825,89.2133179 L16.4573357,91.2863287 L15.6037407,93.969056 L14.0184919,95.1884817 L13.164897,95.1884817 L12.5551864,98.1150927 L12.9210126,100.310053 L15.3598564,103.602489 L16.5792775,107.626584 L17.6767568,111.162904 L18.6522943,113.479806 L21.2130798,117.869726 L22.3105592,119.820795 L22.6763861,122.015755 L23.8958072,122.747406 L23.8958072,124.576541 L23.2860967,126.03985 L21.944733,131.405305 L21.578906,132.868607 L23.4080392,134.941625 L26.5785353,135.30745 L29.9929158,136.648818 L32.9195276,138.234061 L35.114487,138.234061 L37.3094456,140.550963 L39.2605198,144.209233 L40.1141155,145.916418 L43.0407273,147.501669 L46.6989921,148.111378 L47.7964714,149.696629 L48.2842402,152.135473 L47.1867609,152.62324 L47.4306453,153.354891 L49.8694898,153.9646 L51.9425066,154.08655 L54.3260435,152.814141 L57.2526575,155.984636 L57.8623681,157.691829 L59.8134461,160.862323 L60.0573297,163.301167 L60.0573297,170.373815 L60.4231552,171.715175 L67.98357,172.812658 L82.8605086,174.885669 L93.3039655,175.903762 L93.3039881,175.903762 Z M26.822686,142.927818 L27.7982265,144.086273 L27.6762847,145.061815 L25.2374327,145.000866 L24.8106333,144.086295 L24.322863,142.988811 L26.822686,142.927863 L26.822686,142.927818 Z M28.2859968,142.927818 L29.2005664,142.440051 L31.8833036,144.025302 L34.200213,144.939865 L33.5295286,145.427648 L30.115136,145.244727 L28.8957103,144.025302 L28.2859968,142.927818 L28.2859968,142.927818 Z M43.8946496,157.865788 L45.2360133,159.633952 L45.8457321,160.36561 L47.0041861,160.792406 L47.4309802,159.694922 L46.699327,158.353555 L44.6872774,156.829275 L43.8946496,156.951217 L43.8946496,157.865788 L43.8946496,157.865788 Z M42.797162,164.389712 L44.1385339,166.767593 L45.0531036,168.230909 L43.9556167,168.413815 L42.9800792,167.499251 C42.9800792,167.499251 42.4313358,166.401767 42.4313358,166.096905 L42.4313358,164.450683 L42.797162,164.389735 L42.797162,164.389712 Z" id="CA"></path>
            </g>
            <path d="M159.159483,366.594828 L159.159483,408.081897 L186.314655,442.025862 M0,315.301724 L108.62069,315.301724 L159.159483,366.594828 L224.030172,366.594828 L264.008621,407.327586 L264.008621,442.025862" id="Shape" sketch:type="MSShapeGroup"></path>
            <path d="M422.244767,442.025862 L422.244767,383.694364 L514.452622,383.694364 L514.452622,442.025862 M477.307393,383.694364 L477.307393,442.025862 M422.244767,415.267804 L514.452622,415.267804 M450.997871,414.578787 L450.997871,442.581133" id="Shape" sketch:type="MSShapeGroup"></path>
        </g>
    </g>
</svg>